<mxfile host="app.diagrams.net" modified="2024-01-29T12:11:14.317Z" agent="Mozilla/5.0 (Windows NT 10.0; Win64; x64) AppleWebKit/537.36 (KHTML, like Gecko) Chrome/120.0.0.0 Safari/537.36" etag="bwdH1Lvl54Ml3L5F4WB3" version="22.1.18" type="github" pages="3">
  <diagram name="Page-1" id="1fPmWj2exfbntZxModGO">
    <mxGraphModel dx="880" dy="434" grid="0" gridSize="10" guides="1" tooltips="1" connect="1" arrows="1" fold="1" page="1" pageScale="1" pageWidth="850" pageHeight="1100" backgroundImage="{&quot;src&quot;:&quot;data:image/png;base64,iVBORw0KGgoAAAANSUhEUgAAAy4AAAIBCAYAAACvPuv8AAAAAXNSR0IArs4c6QAAAARnQU1BAACxjwv8YQUAAAAJcEhZcwAADsMAAA7DAcdvqGQAACyQSURBVHhe7d0NUxNZ3sZhnNFHBJHa7/8lBQRUZmeeudm0tu3pt6STnE6uq4pSHEziVq3k5/+8vPnnXxcAAAAV+2PzIwAAQLWECwAAUD3hAgAAVE+4AAAA1RMuAABA9YQLAABQPeECAABUT7gAAADVEy4AAED1hAsAAFA94QIAAFRPuAAAANUTLgAAQPWECwAAUD3hAgAAVE+4AAAA1RMuAABA9YQLAABQPeECAABUT7gAAADVEy4AAED1hAsAAFA94QIAAFRPuAAAANUTLgAAQPWECwAAUD3hAgAAVE+4AAAA1RMuAABA9YQLAABQPeECAABUT7gAAADVEy4AAED1hAsAAFA94QIAAFRPuAAAANUTLgAAQPWECwAAUD3hAgAAVE+4AAAA1RMuAABA9YQLAABQPeECAABUT7gAAADVEy4AAED1hAsAAFA94QIAAFRPuAAAANUTLgAAQPWECwAAUD3hAgAAVE+4AAAA1RMuAABA9YQLAABQPeECAABUT7gAAADVEy4AAED1hAsAAFC9N//8a/NzAIBB3759u/jvf/978f3794vmLcTbt29fPy4vLy/evHnz+msASxMuAMCol5eXi+fn59do6ZNo+b//+7/XgPnjD4s6gGUJFwBg0NevX1+jZapEy8ePHy/+/PPPza8A7E64AAC9Hh8fX5eFbeP6+vp1AgOwBOECABQ9PT297mnZRZaNffjwYfMZwPYsQAUAfpMpy1C0ZD9Lsyl/yNxlZgB9TFwAgF/89ddfF1++fPlxalhb9q1kCVh7/8rff//9Gjn56HtbkSVj+X0A2xIuAMAvEi05RaxrLD4SPNkTk5ApES/ALiwVAwB+SHyUoqWZtAzJsrGbm5ve5WNZfpawAdiGcAEAfijta8l+lhxvPEWOQk689J0mJl6AbQkXAOCH0rTl6upq9oWSmc6IF2BJwgUAeJVo6W59bW7Dnyv7XIZu2RcvwFzCBQB4VdpU//79+83PpsvjZIP/ULiEeAHmEC4AwKvSQaNj97R0TY2WhngBphIuAMCrUqS8e/du87NpEiGlaMlyM3tegF0IFwDgVcLlw4cPm8/+dwTyHJm05DjlrgRLNuvbsA/sQrgAAD9cXl6+BkY25c9ZJvb8/Dzp0krxAmzLzfkAwE4yZcm0pfuWIsvM+u5/SaAkVEq6sQMQJi4AwE6enp5+i5ZMa4YurTR5AeYSLgDA1hIZ3c34WWaWSyvHJF769tGIF6BLuAAAWyvta8k+makb+4e+TrwAbcIFANhK7mxJXHTNubTyjz+G34qIF6AhXADgBH379u3i4eHhl4+vX78WJyTbKh19nL0tWSq2rVLIJF5KzwWcF+ECACckb/Lv7u5eN8znzX77I0cW5/Sv/PdEzK5KF03OOUI5upv6c49Md9N+HnPu4wKnR7gAwIlIrGRZVZZwDcl/T8QkYErxsYu5k5FuuOTz9oljCRZHIwMhXADgBCRasjxsjgTM/f391tOX0pKwsWjq6gunxEqOU765uRndBwOcB38TAMDKZXnY3Ghpa5aQzVVavpVwSURNka/thkv7lLFcYAnQEC4AsHJL7FfJpv25p3clXErTkETUlEMASs9nugL08bcDAKxYaWrRyD6RLLXKkqt8ZOP70Ilf2xw93Hf0cR4nj9cnU57ufphEi3AB+rz5p7srDgBYjUxbEgFtiZPsESkttUroZCKSj763AAmeORvis8m/b29LHisfzWtpTjcrbeLPxZWJK4AS4QIAK5YI6C4Vy5v/RMCQfPvPvpa+U8DmxEuzzGyXtxSJrdvb253ugAFOm3ksAKxYNxay1GosWiKBkGVkCZSSOcvGMk25urrafLadsWVsAMIFAFaku+l96FSuKTJVWSJe8hiJl23iI6HVt1cGoCFcAGAFsockd65keVc7Jrqhss0N80vFS+IjjzVng30mLfa1AFMIFwBYgQRLM11px0R3wrHtPpOl4iXLxrIEbWzpVwIrXzdlWRtA2JwPAJXrC4eERiYu7VPFdj2ZK8+T5yvJ803dsN/IY7WXsyVm8jiOPQbmEi4AULksE2tPXNoSAu1v5buGSywdLwBL8M8dAFC5TCdygWRp43333x+X+PfIpZaNASxJuADACgzFS1vfvSxziRegNsIFAFZiSrz03WC/DfEC1ES4AMCKjMVLloq1N+vvSrwAtRAuALAyY/Hy9etX8QKcHOECACskXoBzI1wAYKXEC3BOhAsArFht8VK6awZgCcIFAFaulnh5+/Zt72sA2JWb8wHgwHJkce5bSVC0JxS5BT9v/N+9e3fx/v3718/nGLphP5a4Vb8tS8MyZYm87sRTIgpgH4QLABxQ3ug/PT1NuuE+8ZKPOVOMQ8dL4it/lrxO0QLsk3ABgAPJcq280Z8rsTEnDA4dLwCHIFwA4AC2jZZGlo1lb0mWkU0hXoBTY6YLAHv28vKyU7RE/p0xIdLsKRlz6A37APsmXABgz8aiJXGRE7mmbMbPhvipwSFegFNiqRgA7FGWat3f328++ymRkuVaOVa4vXclX5+gGJusJHSydGzKvhfLxoBTIFwAYI9KU40p+1USGd++fXv96JNJSh5nyqlj4gVYO0vFAGCPSv8+mEgY22SfGLm6urq4ubnpXUKWCBmKkTbLxoC1Ey4AsEfdqGiWiE2VJWGfPn3qXRKWSUr2veTHMeIFWDPhAgAL6gZEd+KSEJkrwZHJS19wJI4SL1OIF2CthAsALCDB8vDwcHF3dzf4xr8vGMYkODJ56Vti9tdffy0aL1OPXQY4FOECAAvIXpPEQ7SnFlOOOJ4jwdEXL4mNoc38bWPxMmXfDMAhCRcA2FFCpftGv4mXpcMlhoIjzzk1OvriJcvZnDAG1Ea4AMCO3r9//xoBXYmX3Jq/D313uGRPzdPT0+azcd14ae6HAaiNe1wAYAGZcmS52NjpXomcHHO8hDxn9tWUvpUnPnK55VR53Xm8sWOaAY7FxAUAFpCJRSYXpSlIW7MPZgl5zoRQSaY9c+R1ixagZsIFABYyJV6m3LcyR/ailJ4v05OpG/UB1kC4AMCCxuIly7qWDoq+jfRLTncAjk24AMDCxuIlm+eXjJfsZclzduVggKUnPADHIlwAYA8OHS+l/SmZ7pi6AKdCuADAnhwyXnKMcYmJC3AqhAsA7NGh4mVoTw3AKRAuALBnh1421mbiApwKF1ACQEE2tucjxwrnzX++XWY5VjbCz7nYsW3skspcTNl3L8uY7GXJZZRdl5eXvaeOAayJcAGAlsRFJiBDm9ozOUlgJArm2le89E1t5t6gD1Ar4QIAG7lt/vn5efPZuExgEhqlo4iHLB0v379/v3h8fNx89tObN28uPn361LtEDWBN/E0GAP/KG/850RLN8qy5Rw4vueclsZWvL8kRyaIFOBUmLgCcvV03x2eykX0kc5d4jU1eEh35SOjkOdrye/L781Fi2gKcGuECwFlLsPRNLBp5858Q6IuExjb7U8biZVv2tgCnRrgAcLayxCvRUPpWmClHpijtG+kTGVmalT0lfWqIFyeJAadIuABwthILOfK4K+GRAOkzFhrHipdMhfLcJi3AKRIuAJylvntPclLYzc3N5rN+tcRLJkP5yOu2GR84ZcIFgLNU2pCfiUWiJSEwRb6FJn4SHCX7iJdtHhPgFPhnGQDOUmmfSvaFTI2WSOjkWOO+37PNaWV5rKWOSgY4JcIFgLOTZWLdBQcJhX1MMsQLwDKECwBnp3Rh5DbRkuVcWdbVt1SsIV4AdidcADg7pe2d7WOPp5gaLQ3xArAb4QLA2elGSvaq9O1T6fP4+FiMlkxulgwN8QLwP8IFgLOTo4PbS8PmRksmLaXlZrk/Jad+LR0a4gVAuABwgrKMKzfcD92HksDIDfMxZ5lYHrd0aWWi5fr6+vXn+wgN8QKcO/e4AHBS2ntPplwmmW+DWSo2RR7z/v5+89lPCZ9ERVe+fuk7WfbxmABrYOICwMloR0tkOVfpvpa2qdES2dfSlUlIYqHE5AVgOcIFgJORSGmipfH8/Fw8RWyu0mMnerI8rC8iogmNvkASLwDTCBcATlqmMNmXsqvSY0y9aT9fM/R14gVgnHAB4GRks30pEBIdpVPApkr8lKYtc/aSjAXOvuKl+7oB1kq4AHBS+vab5E38tvqOPp6ju1yttHQsy9rmGosXZ/AAp0K4AHBSune0NDJ5GNuo36c0tZizqb8ky8y6sZHXvo2+eMkEatvHBKiNcAHg5GTqUppAZKLRd4zwXLtOMhI+7dhIYPRNi6boxkvCKB8Ap0K4AHCSSm/at92oX5quzN0z0/36hE9iI/fM5GSy/FiKrTmax/v06dOPyzUBToVwAeAkZQ9KaR9KNsDPjY4EQdecpWf52u6kp1nClViZu19mSB6v9HoB1k64AHCyMnVYYhN8bsbve5wpS8ZKBwPsukcG4NwIFwBOViYPpSVTmbjMPXq4NBXJFOXh4WFwgpNo6f73vK5dl4UBnBt/awJw0obudpmzUT97ZkpTkiwD+/Lly28b//PriZpSIC25NAzgXLz5xwHvAFQqIfD4+Pj6Y8Jh2zf8iYj7+/vNZz/l2OQ5J3llT0tezy4SP7e3t5aKAcxk4gJAlRIrmWRkmVUTME3EzJWJyxIb9fMYc27LL0koiRaA+YQLAFVKpGRS0paJRyYn29wwP3S3yxx5nG2PGs7vs0wMYDvCBYAqdaOlkRXO2Z+SgHl5edn86rhMOZbaqJ9la7l7Zc7kJL+ndLcMANPY4wJAlRInU6YhmWDMWX5VOgUsk5htLoDMt9CcGjZ0n0tzI767VQB2I1wAqFamKn2Tl7ZES+JgyjKs7JHJ43a//c3dqN+Wx0wM5bXmx8RKQqX5AGB3wgWAaiUCMiGZKsGQ5VjNrfR9StOcxM/Hjx9Hfy8Ax2GPCwDVakJkqiZ0xu5oyV6X7rKw/DveNpv+ATgM4QJA1UqREUN7WhIgCZihvSfZXN+V8Bn6PQAcj3ABoHqlvSeJmaGTvdp3v5T2yWSaU7qTxdQFoE7CBYDqvXv37reN94mRxMmnT58GN+VngtIsH+vKMrRu+OQxc1IYAHURLgCsQqYu3SVjzV6WTF4SMH0neDX7V7p3vyRaSne7JHaybAyAeggXAFYhkdHdqJ8gaaYjiZbES2mK0siU5suXL6/Lx5pDNRMu3eCxUR+gPsIFgMmm3KnSp9lzktDIz7eRJWGlJWPtZWAJkVwmObZ87O7u7sdG/NIeGhv1AeriHhcAeuVbxLdv317fwDfRkulE3ujPue8kj5N9Js1jZCKSjfFzjjpu5LESHe1vX3m8xEp3cpLXncnJUCg1Ry7na/NnbcvStNvb281nAByTcAHgN/nWkDf8eTNf+jaRUJhzWWPfDfjbRFDkdWV605bHSLx0JVqagBmSkCr9eXe5UR+A5QgXAH6RJVLZBzL27SHxkj0lpTtW2jLFGDulq5m+9O1NKckEp7uBPoFROuI4Ek55HXM33c+NNAD2wx4XAH7IXpEEwZR/08rXTDk2uHSUcVfiJsu/SkcW9ynd4ZKpSt9rz3QnE5m5gZTHm/O6ANgPExcAXpWWX/XJ9CEhkOlGd19Jn8TJUFg08tiZnEx53DxeNyqmLO3Ka8jv7e5pGfKf//xn8zMAjkG4APB6t0n7iOCuTCgyNUlUjE1PhmS/SWJhygQjAZITwsaWopX2z2SyMmVpV5aNZWpU2n/TNiWGANgv4QLA6zKtvpO35kxAppq63yTRkqVdQ7GUx0q8tM09DSwhlY/St8T8ubPHZSygANgv4QJw5krLrSJTlkw8SjfLL6U57WvsXpeESwKmLx5Kf4a87vyeqfIaMnVqx5RoAaiHcAE4c58/fy5OGua+8d9WgiHRMbbfJCGVJVt9r6k0NcqpZ3MnRYmpvJbmUAHRAlAH4QJwxjJdyCliXXmznzf9h5TXksnJ2PKxvLYsXevuYSn9WY7x5wBgP/wzEsAZy6b8kkNMWroSItlUnygZmnJkT0sCJXtk2v/2lt+fiUxbvjYxBMD6CReAM9a3t2Tu8qolJT4SMN0I6cpyru7dL6V9MPm6sSkOAPUTLgD8Im/8j72vI8+fycvYscaZuGSikglMpivNgQJtzdcAsG7CBeCMlQKlpq2PU5ePZaKSI5GzfCyb6kv7X0onpwGwHsIFgF8kXPr2vhzLnOVjmb4kXjJ9aUu4ZCoDwDoJF4Az1nexY417QprlY7lYcmj5WPbtlJaGJchMXQDWS7gAnLFswi8twcob/NxnUqO83kxfrq+vB5ePlZa8NXe0ALA+7nEBOHOJlNKEIkutcmv80HRjTJacZXlW862mmeQkOBJNu17wmOlKc/v+VO52AVgn4QJA8db5SLzkiOGxvSWNJlTy49TlZgmJPP7U5yjJa398fJz0nHmeLDkDYF2ECwCvb/hLN+g3mulIfoxsfk+c5FtIQiUfeYxdvqVkspOgaJ5jG830Zeh+mkyRdpnyAHAcwgWAV31Lxg4pE57ES9+hAVP0LR9LGI3tiwGgXsIFgB++fPlSxVHIiZddlo5Fe/lYQijRAsB6CRcAfpFLHGs4eSuhscvkBYDTIlwA+M0+lo1lf0lzKeSUTfRLnGoGwOkQLgAUZcN9pi9TIqOk2cyfj2zmLxnbTJ/9KLlwEgCECwCDmuONExn5eUmmIwmUTEcSKXOmJImWBFLf3pocx3x5ebn5DIBzJVwAmCzh0p2ONJdJ7irHMZemO4miTF2aZWYAnCfhAkAV8u3o/v6+uGzM1AUAh9kDUIVMVPqOLK7hiGYAjku4AFCN7I0pHYG86638AKyfcAGgKn0nkG17uhkAp0G4AFCVvk34fUcmA3AehAsAVbEkDIAS4QJAVYbuigHgfAkXAKrSFy5L3BUDwHoJFwCqkWVifZdQCheA8yZcAE5QNrJ//fp1dSdxPT4+Fve4lI5IBuC8CBeAE5No+fLly8Xz8/Prj2s5jSuh1XfRZO53AeC8CReAE5NYafaJZHrx9PT0+vOaZdKS0CrJtMXEBQDhAnBCvn379tvm9kwx+ja8H1te18PDw8X37983v/Kr7G15//795jMAzplwATghfRvYM9GoRZauJbDymu7v7wf34VxdXVkmBsCrN/+46QvgpCQIShOM6+vroyy5yreZZuqTSMmPU771ZNKScAGAEC4AJyZ/rd/d3f0WB3/88cfF7e3t5rPDSKRkqjLX5eXlxYcPHzafAYClYgAnp29fSHNE8iHltSSYpsrXf/z4UbQA8BvhAnCC8sa/FAzZW3JIeQ1ZopYgGfPu3buLm5ub1x8BoMtSMYATlUgpHYV8jL0j2duSvTelO2XyerL3xiZ8AIYIF4ATlv0l3aOQM/3IXpcpU5Al5dtNYqr5tpPJilgBYCrhAnDCcppXLqTsyoQjS7gAYC3scQE4YZlqlPaM5LjkoftTAKA2wgXgxGU/S2lZ2KFPGAOAXQgXgBOXk71KF09mGZmpCwBrIVwAKpa4KJ3ENVff8cilU8cAoEbCBaBCiZWcCJaN9flx12VdWSpWupQyJ45lvwsA1E64AFQm0ZJgaY4xzuGPz8/PF3d3dztFxuXl5cWff/65+eynPDYA1E64AFQmy7e6d69EgiaXOD48PLwuIdtG4qUrj2ujPgC1Ey4AlRm7Xisb6jORycfc/S/ZpF/aqN++GBIAaiRcACqTiyFL+1G6MnXJ8rFMaOZER+mxE0CWjAFQMzfnA1Qqk5XExJQji5vN9zk9bIo8bnd5WB7j9va2eOcLABybcAGoXCYrCY3SvpeuHHmcfSxjE5v81Z9pTfdbQH5fLqwEgNoIF4CVyIliCZgp+1pyelimL+/evdv8yu8ycSktD7u5ubl4+/bt5jMAqINwAViZOQGTjfiZovSFSKYu3cfJ78k+GwCoiXAB6Mgb+Uwj8ma/dAJXLfIa8zHlr/EsH8tHd/9KIihHLHclXGr+swNwfoQLQEv+Ssw9Kc1+krzZn7rh/RgSWYmPKQHTbODPR/bCNHIzf3f/TJaaffr0afMZAByfcAFoSbR0T/FaKl7y123uS0lodEMh051mY33pdvsxeexmAjMmz5M/TzNRyWtJvHRlk/7YJn8AOBThArCR07tyqWPJrvGSWJl630rCJc+3zVKtREj2v0y5WT/PkzhJNOXP3f09CZwcjwwANRAuAC2lZVONbeMlITFlEtKVcMnztZd1TTXnDpiESyYrpbDK8+fPDQDHJlwAWrJnJNOHpeJl22hpZF9KnnPbeJhzB0yeq/stIb/mUkoAaiBcADqWipehpWdz5T6WLOvaZvoSWaqWgOkefTxFpjEupQTg2IQLQMES8ZJjhhMMJZlgNJvw89fwlIlIouXjx49bbd5vbBMwea25lHKX5wWAXQkXgB67xEt+T+mkrkRAaelXvj5RkVPHhv5aTrzkjpW+CyWnak4gm/otIBOfRBMAHItwARiwbbwkQLLZvW3K5CLP10xF+uRxEhG7xkvzXFMDJq991+cEgG1tt1ga4EyMLc/Km/5SZJRCIJEzttwqz5evy+WPfV+bx05MTTkxbEjzXNl8350AlSTGAOBYhAvAiG3ipTuhaZaITZXnGpqqNPHSNwmaI68tU6PEUpaE9cl0Jh8AcAzCBWCCbScvjbFJS0meM8uz+mJiyXiJJpYygck+mpL8OQHgGIQLwES7xMvQJGNMnrNvWpN9Kt29NLvKnzOXX5Zec3OIAAAcmnABmGFqvHT/+5TN70OylCv3qZRkr8vS8RJ9sTQ0WQKAfREuADNNiZd9bGTPJZB9k5s839KTkOyvKcVLpjyWjAFwaMIFYAtj8ZI39/sw9Jz7mIQkXLJ5v8sJYwAcmnAB2NJYvLTtenRxWzbO57m79jEJSbRkv0vXPvbWAMAQ4QKwg6nxstTJX5Hn6ruxfx+TkDxXaeqSpWm77t0BgKmEC8COpsRL3uAv+SY/U5DS8x1y6pI/j436AByKcAFYwJR4WToo+u5a2cdxxUNTFwA4BOECsJCxeEm4LDmhyPP03bWy5J6a6Ju6AMChCBeABR06XvpiYulwidLUJUc0A8AhCBeAhR0yXkrLt2Ifm+bzXO17XfJzUxgADkW4AOzBoeIll0SW7GPiEomV3OCf/TV9J5sBwD4IF4A9OUS89E1c9inLw0xaADg04QKwR/uOl77JSp4XAE6J72wAe7bPeHl5edn87FfCBYBT4zsbwAHsI15yh0p+X0npmGQAWDPhAnAgS8ZLvvbx8XHz2a+yYb9v0z4ArNWbf/ZxZiYAvf7++++LL1++vF4U2SfhkY333cjJnpb8vqG/uhNHJi4AnBrhAnAEU+JlGzmiuH3XCgCcCkvFAI5gbNnYNnK/imgB4FSZuAAc0RKTlywpc7cKAKdOuAAc2Vi8ZL9L/qpu/nuz9yU/JlYECwDnQLgAVGAoXhIm19fXm88A4DwJF+AsJAwSBd2b5jO5qGViIV4AoJ9wAU5aIiAXNX779m3wCOEcH5zN7cc+Rli8AECZcAFOVoLl6elpMFi6sp8kJ3MdM2CG4uXm5sblkgCcJeECnKTcQJ/b5bd17PtQSvGSYEm4AMA5Ei7AyXl8fHydtuwq+1+yNGvJu1bmaMdLoiWvJfe/AMA5Ei7ASUmwJFz6JACapVYJg7HASSgkGI65POvl5eXoe28A4NiEC3Ay8tfZ3d1dcU9LNrZn6Vd3epJpRsIgy8r6/jrMfSlZonWsyQsAIFyAE5KN+Dk9rCsTkylHHmdZViKmJPGSxzH5AIDjsFgaOIhsln94ePjtHpWl5N9gSsu+csTx1HtaPn782LshP4+fMMryMgDg8IQLsHfZc5KlWImWTDX2ES+ZlHQHyNmfcnV1tflsmpwmlslKJixdiRZDagA4DuEC7FWCpT0JyRv/fcRLaRIyddLSlddYCpTEjH0uAHAcwgXYq9LyrX3ESylctjk6OHtksiSsK9GSpWQAwHEIF2CvslSrtOxq6XgpTUjmhstYtBzzSGQAOHfCBdirvNnPm/59x0spUuZspBctAFA34QLs3SHipfTYuaNlCtECAPUTLsBB7DteSpvmx27FD9ECAOsgXICD2We85GLI7uPmMYfiRbQAwHoIF+Cg9hkvpeOPEyclogUA1kW4AAe3r3jJLfldeZzcJdO2j2jJZOfz58+/PRcAsAzhAhzFPuIl+1xKe10SE81G/X1NWvK4ed3Pz8+vHwDAsoQLcDT7iJfLy8vNz35qHisBs49oyeO3X2eeZ5uJEQDQT7gAR7V0vGSfS2mvS+50KU1Cdo2WKO2jeXl52fwMAFiCcAGObul4yW39U27NXyJaohQuc2/tBwCG+c4KVGHJeMljfPjwYfNZ2VLRkmVh3Rv689g5nhkAWI5wAaqxZLxkudhQvGQiUtrIP0c2/JdOEctzm7gAwLJ8ZwWqsmS8ZKN+ab9LJDru7+9nLUFra15Lfuzqe04AYHtv/v2m+/t3XYADyTKrZo9IIiLBkklIft4XFXOXeT0+PvbeoJ/Hyp6YubHx8PBQfH25SyaPBwAsS7gAR5E3/TmauLlfZa4l4yUynRnbFxN5vXms0uvOa7q9vX39EQBYlnABDi77Qpa4pHFuvCSUSieANbIvJQGTjfXdPSrNZCgfpb82574WAGAe4QIc1Fg8zDU3GBJMpQ31XXm8LFnL42c6lAnL0F+X19fX9rYAwB4JF+BgslQry6yGJBTap31l0tE9brhrbrwkXPKx1F9/U5eZAQDbEy7AwXz+/Lk3FjKtyMb2vvhoph6ZmJQeY268JIZyKti2e2waJi0AcBjCBTiIvn0tc4MjAdN3DPHcx4q8pr59K0O2eS4AYHvCBTiIvuODc3RwJi1zLB0vYxvv2/L4eb35cMkkAByOcAEOorRMLG/8c3zwNpaOl8bLy8vrY3cjK/tu8nj5ECwAcHjCBdi7TDTu7u42n/2062WN+4oXAKA+/tkQ2Lu+fx/Z9d9NEiWJk0RKVx47UdOdnAAA6yRcgL1rH2/cVgqOucQLAJwH4QIcRGlfSPaTLEG8AMDpEy7AQZSmLtn7slRQiBcAOG3CBTiIvksacwTxUsQLAJwu4QIcRMKlFBRZLrbr7fVtiZe+e2HECwCsl3ABDuby8nLzs58SE09PT5vPltF3GECIFwBYJ+ECHEzCpbRJPxHx/fv3zWe7G7sgUrwAwPoIF+Cg+pZxZeqy5CljY8QLAKyLcAEOKlOXUlgkJB4fHxfb79Kdunz48GHzs5+aeAEA6idcgIO7urrqPfkr8ZJjkpeWfS953q6+084AgLoIF2CyLKv6+vXrxcPDw+tHIiOfz11u1RcRkYnLPuIlj5dlau3nzesoHRgAANTnzT/5J06AAQmT5+fnwUDJ8q9EwLt37za/Mi6PmfApyVKvm5ub0Y32fT5//vw6wWkkWJr9Nflz5CPTlm0fHwA4LOECDBqKi5LuVGNMNuX3XUKZ5WSJl6HjjUuyyb+7d+X6+tqyMABYMf/UCPRqloLNkQi5v7+fvMk+kdMXFPl3lSxJm3u7fmkyVNpTAwCsh3ABijJp2fZulUTLnKOGh6YhiZdMZfIxZd9Lpi2l2JpyRDIAUC/hAvwmwTJ30tKVyJgbL0P7Y5pJToKqL2DyNZkSdWWpmYkLAKybPS7ALxIaCY7SXw3ZyJ77UBIC+UhA5OsTOX1LwxIMHz9+nDzxSHhMmfTk8ZrHzGvN6+h7DTk0oHSPCwCwHsIF+EWipXSDfaYhCZA+iZdMQ0rmxkseKx9L/PWU5769vTVxAYCVs1QM+CGTjlK0ZP/JULREphpZ7lUKhATInGVjeaxdjkJuy+Z/0QIA6ydcgB9Kp3c1y8OmaAJniXjJUrRPnz7tdIRxAmiX3w8A1EO4wEplf0mmI0ut9mz2q3RlijJn8pHlYEvFSx4jz5+AmXOXS/P77GsBgNNhjwusUHs/Sd6kz9k/0ifTlhw53NZMPeZqThRbasN+I4+XP3tfsOVxcwFmPtyIDwCnRbjAypRusl8iXko32GdikeVWc4xFS2PX19xMiPJjM40ZOk4ZAFg3/yQJK1KKlsi/P8xZglVS+jeMTC7mmBotsetrzkQl+1cSVgkW0QIAp024wEqMXQq5RAi05fNMRebIHSylaElglB5rieACAM6DcIGVKJ341bVLCGS60t4AP3cJV6Kl9LyJlmyUX2rDPgBwnoQLrETe4E+xbQhkwpK4aOJlTrhkElS67b6JlsjjiRcAYFs258NKlDbPJzKWPrkrcmrX1D0jef77+/vNZz/13bSfOEmklP7q2eU1AwCnzcQFVqL0Zj5v/puJRtcuU4w5G92zRKwrQVWKljB5AQC2IVxgJbLsqr0HJXKKVz6urq42v/KrfYdAloh1Jz4Jkr6YajTxUiJeAIAS4QIrUrpTJcvHsrH+GPFS2teS19ENrJLES98lkeIFAOgSLrAifVOXTD4OHS/ZB9OdtjR3q0xVWi7WEC8AQJtwgZXpm7rEIeOl9DhzoiWGwiXymkt7aACA8yNcYGWGpi5xqHjJY3X1Lf2aKntjujHjRnwAIIQLrNDQ1CUOES+lcCn92hzdE8fyeenPCgCcH+ECKzQ2dYljbNif+3jdPTL5PLFyc3Nz8eHDh9cfd53iAACnwTsCWKmxqUvsM15KJ4flsaY+Xjb3dyc0iZbIY5u0AABtwgVWasrUJfYVL6W9J3m83PA/Rfd1ZnnY2GZ9AOB8CRdYsdJUIkHQnWTsI14STaWpS5Z7JV4SUX3y37vPV3osAICGcIEVK01dEiLPz8+bz37aR7z0LefKkrWHh4ffLqjM8+TXu0vaYu5RygDAeXnz7xuJ3Y4BAo4qcdC96yRLrm5vb4tLrxINfcu58vU51avZazJFHqsUIm15vExi+v66yQb8vF4AgD4mLrByc6YusfTkJY81Fjp5vKF/I8kJYgAAQ4QLnIDSkq1MYvpiYel4ycWR2+5RSbRYJgYAjBEucALmTl1iyXjJUq9Pnz7NvuU+0eLYYwBgCuECJ2Lu1CWWnrxkf0ymL2OXRiayEjqiBQCYyuZ82IMcBdy84c+b9G2XUc11f3//2230Q3HSWHrDfuR15HGb15OYaf63mDuZAQAQLrCwTDkSAe3/a+WNeqYLc9/8zzX3hLG2fcQLAMBShAssKHtKujfCtx0iYO7u7n67/HHK1CXECwBQK3tcYCFj0RIvLy+vFzBuc9njVImUrrG9Lo2l97wAACxFuMACEgZj0dLWBEyWdXX3pOwqE53u5vhEx9AJY23iBQCokXCBBcyJlrYETzbULx0wu0xdQrwAALURLrCA7p6SRvaFZF/L2Mb4JmAyFZkaF0N2nbqEeAEAaiJcYAGlCUfkDX4mKTc3N5PuLMnkJpvru6eSbWPXqUuIFwCgFk4Vg4VkuVfCoCTTj5zIFYmTvq9ry5QmN+LndvmxiU2fXU4Ya3PaGABwbMIFFjQlXnIBY6YUCZhs0h+TMEhs5KO7/GtMnqO7PCyPN+Vel66xeMmN+S6WBAD2RbjAwqbGSyRgEhZTllttGzBLTV1iKF4SLpkQAQDsg3CBPZgTL5HJS6YjUwMm+2Wm7JmJJacuUYqXLBPLPh4AgH0RLrAnc+Ml8vUJjSlHI+cxMjmZEjBLTl2iHS/5M+TPMmcKBAAwl3CBPdomXiK/J1OSvmOW26YETN/UJc+/7ab65s9leRgAcAjCBfZs23iJTDYSHVMDJvGSiCkpTV2ymT7PDwBQO+ECB7BLvETiJRGzS8CUpi6RvSmOMgYAaidc4EB2jZdIfORjyv9t85i5A6a9lMvUBQBYK+ECB7REvCQ8Mn3Jx5T/++bxMoFJwJi6AABrJVzgwJaIl8j/dRMheaw5AVPa9G/qAgDUTrjAESwVL5H/C+do4r7Hm8rUBQComXCBI1kyXiJ3vzRLyLZh6gIA1Ey4wBEtHS+R2/ezlyW38c9l6gIA1Eq4wJHtI14iE5gsIUvITGXqAgDUSrhABfYVL5HJSyYwUwPm9vb29TkBAGri3QlU4Pr6+pf7VtpyAtiXL19eJyjbyBQlS8DyHFPiZ8ollwAAh2biAhXZ5+SlkccvHYkc2d+SyAEAqI1wgcocIl4ip49lCVkTMImWTGUsEwMAaiRcoEKHipdonqdvqRoAQA2EC1TqkPECAFA7a0KgUvvcsA8AsDbCBSomXgAA/ke4QOXECwCAcIFVEC8AwLkTLrAS4gUAOGfCBVZEvAAA50q4wMqIFwDgHAkXWCHxAgCcG+ECKzUWL09PT5vPAADWT7jAig3Fi1v1AYBTIlxg5Urx8vbt24urq6vNZwAA6ydc4AS04+Xdu3evnwMAnJI3//xr83Ng5bK35Y8//HsEAHB6hAsAAFA9/zQLAABUT7gAAADVEy4AAED1hAsAAFA94QIAAFRPuAAAANUTLgAAQPWECwAAUD3hAgAAVE+4AAAA1RMuAABA9YQLAABQPeECAABUT7gAAADVEy4AAED1hAsAAFA94QIAAFRPuAAAANUTLgAAQPWECwAAUD3hAgAAVE+4AAAA1RMuAABA9YQLAABQPeECAABUT7gAAADVEy4AAED1hAsAAFA94QIAAFRPuAAAANUTLgAAQPWECwAAUD3hAgAAVE+4AAAA1RMuAABA9YQLAABQPeECAABUT7gAAADVEy4AAED1hAsAAFA94QIAAFRPuAAAANUTLgAAQPWECwAAUD3hAgAAVE+4AAAA1RMuAABA9YQLAABQPeECAABUT7gAAADVEy4AAED1hAsAAFA94QIAAFRPuAAAANUTLgAAQPWECwAAUD3hAgAAVE+4AAAA1RMuAABA9YQLAABQPeECAABUT7gAAADVEy4AAED1hAsAAFA94QIAAFRPuAAAANUTLgAAQPWECwAAUD3hAgAAVE+4AAAA1RMuAABA9YQLAABQPeECAABUT7gAAADVEy4AAED1hAsAAFA94QIAAFRPuAAAANUTLgAAQPWECwAAUD3hAgAAVE+4AAAA1RMuAABA9YQLAABQPeECAABUT7gAAADVEy4AAED1hAsAAFA94QIAAFRPuAAAANUTLgAAQPWECwAAUD3hAgAAVE+4AAAA1RMuAABA9YQLAABQPeECAABUT7gAAADVEy4AAED1hAsAAFA94QIAAFRPuAAAANUTLgAAQPWECwAAUD3hAgAAVE+4AAAA1RMuAABA9YQLAABQPeECAABUT7gAAADVEy4AAED1hAsAAFA94QIAAFRPuAAAANUTLgAAQPWECwAAUD3hAgAAVE+4AAAAlbu4+H/KOjqsRxIHeAAAAABJRU5ErkJggg==&quot;,&quot;width&quot;:&quot;814&quot;,&quot;height&quot;:&quot;513&quot;,&quot;x&quot;:0,&quot;y&quot;:0}" math="0" shadow="0">
      <root>
        <mxCell id="0" />
        <mxCell id="1" parent="0" />
        <mxCell id="RFqODL0dqzZt3RmBmh70-1" value="&lt;b&gt;&lt;font size=&quot;1&quot; style=&quot;&quot;&gt;&lt;u style=&quot;font-size: 16px;&quot;&gt;Vagrant workflow&lt;/u&gt;&lt;/font&gt;&lt;/b&gt;" style="text;strokeColor=none;align=center;fillColor=none;html=1;verticalAlign=middle;whiteSpace=wrap;rounded=0;labelBackgroundColor=none;fontColor=#46495D;" vertex="1" parent="1">
          <mxGeometry x="232" y="40" width="372" height="30" as="geometry" />
        </mxCell>
        <mxCell id="RFqODL0dqzZt3RmBmh70-2" value="" style="rounded=0;whiteSpace=wrap;html=1;labelBackgroundColor=none;fillColor=#B2C9AB;strokeColor=#788AA3;fontColor=#46495D;" vertex="1" parent="1">
          <mxGeometry x="69" y="205" width="114" height="42" as="geometry" />
        </mxCell>
        <mxCell id="RFqODL0dqzZt3RmBmh70-3" value="vagrant init &amp;lt;BoxName&amp;gt;" style="text;strokeColor=none;align=center;fillColor=none;html=1;verticalAlign=middle;whiteSpace=wrap;rounded=0;labelBackgroundColor=none;fontColor=#46495D;" vertex="1" parent="1">
          <mxGeometry x="73" y="209" width="106" height="30" as="geometry" />
        </mxCell>
        <mxCell id="RFqODL0dqzZt3RmBmh70-4" value="" style="rounded=0;whiteSpace=wrap;html=1;labelBackgroundColor=none;fillColor=#B2C9AB;strokeColor=#788AA3;fontColor=#46495D;" vertex="1" parent="1">
          <mxGeometry x="66" y="283" width="117" height="45" as="geometry" />
        </mxCell>
        <mxCell id="RFqODL0dqzZt3RmBmh70-5" value="vagrant up" style="text;strokeColor=none;align=center;fillColor=none;html=1;verticalAlign=middle;whiteSpace=wrap;rounded=0;labelBackgroundColor=none;fontColor=#46495D;" vertex="1" parent="1">
          <mxGeometry x="73" y="290.5" width="108" height="30" as="geometry" />
        </mxCell>
        <mxCell id="RFqODL0dqzZt3RmBmh70-6" value="" style="rounded=0;whiteSpace=wrap;html=1;labelBackgroundColor=none;fillColor=#B2C9AB;strokeColor=#788AA3;fontColor=#46495D;" vertex="1" parent="1">
          <mxGeometry x="66" y="356" width="117" height="39" as="geometry" />
        </mxCell>
        <mxCell id="RFqODL0dqzZt3RmBmh70-7" value="vagrant ssh" style="text;strokeColor=none;align=center;fillColor=none;html=1;verticalAlign=middle;whiteSpace=wrap;rounded=0;labelBackgroundColor=none;fontColor=#46495D;" vertex="1" parent="1">
          <mxGeometry x="69" y="360.5" width="111" height="30" as="geometry" />
        </mxCell>
        <mxCell id="RFqODL0dqzZt3RmBmh70-11" value="" style="rounded=0;whiteSpace=wrap;html=1;labelBackgroundColor=none;fillColor=#B2C9AB;strokeColor=#788AA3;fontColor=#46495D;" vertex="1" parent="1">
          <mxGeometry x="364" y="193" width="152" height="207" as="geometry" />
        </mxCell>
        <mxCell id="RFqODL0dqzZt3RmBmh70-12" value="&lt;font style=&quot;font-size: 13px;&quot;&gt;&lt;b&gt;Vagrantfile&lt;/b&gt;&lt;/font&gt;" style="text;strokeColor=none;align=center;fillColor=none;html=1;verticalAlign=middle;whiteSpace=wrap;rounded=0;labelBackgroundColor=none;fontColor=#46495D;" vertex="1" parent="1">
          <mxGeometry x="390" y="197" width="112" height="23" as="geometry" />
        </mxCell>
        <mxCell id="RFqODL0dqzZt3RmBmh70-13" value="Vm info&lt;br&gt;Boxname&lt;br&gt;Network&lt;br&gt;Provisioning&lt;br&gt;Sync dir&lt;br&gt;memory/cpu&lt;br&gt;disc size&amp;nbsp;&lt;br&gt;etc..," style="text;strokeColor=none;align=center;fillColor=none;html=1;verticalAlign=middle;whiteSpace=wrap;rounded=0;labelBackgroundColor=none;fontColor=#46495D;" vertex="1" parent="1">
          <mxGeometry x="370" y="235" width="136" height="153" as="geometry" />
        </mxCell>
        <mxCell id="RFqODL0dqzZt3RmBmh70-15" value="" style="endArrow=classic;html=1;rounded=0;labelBackgroundColor=none;strokeColor=#788AA3;fontColor=default;" edge="1" parent="1">
          <mxGeometry relative="1" as="geometry">
            <mxPoint x="192" y="232" as="sourcePoint" />
            <mxPoint x="352" y="232" as="targetPoint" />
          </mxGeometry>
        </mxCell>
        <mxCell id="RFqODL0dqzZt3RmBmh70-18" value="" style="endArrow=classic;html=1;rounded=0;labelBackgroundColor=none;strokeColor=#788AA3;fontColor=default;" edge="1" parent="1">
          <mxGeometry relative="1" as="geometry">
            <mxPoint x="190" y="303" as="sourcePoint" />
            <mxPoint x="356" y="303" as="targetPoint" />
          </mxGeometry>
        </mxCell>
        <mxCell id="RFqODL0dqzZt3RmBmh70-20" value="" style="endArrow=classic;html=1;rounded=0;labelBackgroundColor=none;strokeColor=#788AA3;fontColor=default;" edge="1" parent="1">
          <mxGeometry relative="1" as="geometry">
            <mxPoint x="195" y="372" as="sourcePoint" />
            <mxPoint x="352" y="372" as="targetPoint" />
          </mxGeometry>
        </mxCell>
        <mxCell id="RFqODL0dqzZt3RmBmh70-22" value="" style="ellipse;shape=cloud;whiteSpace=wrap;html=1;labelBackgroundColor=none;fillColor=#B2C9AB;strokeColor=#788AA3;fontColor=#46495D;" vertex="1" parent="1">
          <mxGeometry x="194" y="84" width="120" height="80" as="geometry" />
        </mxCell>
        <mxCell id="RFqODL0dqzZt3RmBmh70-24" value="" style="endArrow=none;html=1;rounded=0;labelBackgroundColor=none;strokeColor=#788AA3;fontColor=default;" edge="1" parent="1">
          <mxGeometry width="50" height="50" relative="1" as="geometry">
            <mxPoint x="438" y="125" as="sourcePoint" />
            <mxPoint x="438" y="188" as="targetPoint" />
          </mxGeometry>
        </mxCell>
        <mxCell id="RFqODL0dqzZt3RmBmh70-25" value="" style="endArrow=classic;html=1;rounded=0;labelBackgroundColor=none;strokeColor=#788AA3;fontColor=default;" edge="1" parent="1">
          <mxGeometry relative="1" as="geometry">
            <mxPoint x="438" y="123.5" as="sourcePoint" />
            <mxPoint x="321" y="124" as="targetPoint" />
          </mxGeometry>
        </mxCell>
        <mxCell id="RFqODL0dqzZt3RmBmh70-27" value="&lt;b&gt;&lt;font style=&quot;font-size: 13px;&quot;&gt;vagrant cloud&lt;/font&gt;&lt;/b&gt;" style="text;html=1;strokeColor=none;fillColor=none;align=center;verticalAlign=middle;whiteSpace=wrap;rounded=0;labelBackgroundColor=none;fontColor=#46495D;" vertex="1" parent="1">
          <mxGeometry x="217" y="109" width="74" height="37" as="geometry" />
        </mxCell>
        <mxCell id="RFqODL0dqzZt3RmBmh70-28" value="&lt;b&gt;Boxes/Images&lt;/b&gt;" style="text;html=1;strokeColor=none;fillColor=none;align=center;verticalAlign=middle;whiteSpace=wrap;rounded=0;labelBackgroundColor=none;fontColor=#46495D;" vertex="1" parent="1">
          <mxGeometry x="97" y="72" width="130" height="30" as="geometry" />
        </mxCell>
        <mxCell id="RFqODL0dqzZt3RmBmh70-33" value="" style="rounded=0;whiteSpace=wrap;html=1;labelBackgroundColor=none;fillColor=#B2C9AB;strokeColor=#788AA3;fontColor=#46495D;" vertex="1" parent="1">
          <mxGeometry x="567" y="193" width="101" height="97.5" as="geometry" />
        </mxCell>
        <mxCell id="RFqODL0dqzZt3RmBmh70-34" value="Oracle VirtualBox&lt;br&gt;VM-ware workstation&lt;br&gt;etc.." style="text;html=1;strokeColor=none;fillColor=none;align=center;verticalAlign=middle;whiteSpace=wrap;rounded=0;labelBackgroundColor=none;fontColor=#46495D;" vertex="1" parent="1">
          <mxGeometry x="576" y="206" width="79" height="78" as="geometry" />
        </mxCell>
        <mxCell id="RFqODL0dqzZt3RmBmh70-35" value="&lt;b&gt;Hypervisor&lt;/b&gt;" style="text;html=1;strokeColor=none;fillColor=none;align=center;verticalAlign=middle;whiteSpace=wrap;rounded=0;labelBackgroundColor=none;fontColor=#46495D;" vertex="1" parent="1">
          <mxGeometry x="562" y="157" width="105" height="30" as="geometry" />
        </mxCell>
        <mxCell id="RFqODL0dqzZt3RmBmh70-36" value="" style="rounded=0;whiteSpace=wrap;html=1;labelBackgroundColor=none;fillColor=#B2C9AB;strokeColor=#788AA3;fontColor=#46495D;" vertex="1" parent="1">
          <mxGeometry x="743" y="194" width="82" height="36" as="geometry" />
        </mxCell>
        <mxCell id="RFqODL0dqzZt3RmBmh70-37" value="" style="rounded=0;whiteSpace=wrap;html=1;labelBackgroundColor=none;fillColor=#B2C9AB;strokeColor=#788AA3;fontColor=#46495D;" vertex="1" parent="1">
          <mxGeometry x="745" y="257" width="84" height="37" as="geometry" />
        </mxCell>
        <mxCell id="RFqODL0dqzZt3RmBmh70-38" value="" style="rounded=0;whiteSpace=wrap;html=1;labelBackgroundColor=none;fillColor=#B2C9AB;strokeColor=#788AA3;fontColor=#46495D;" vertex="1" parent="1">
          <mxGeometry x="748" y="320.5" width="82" height="38.5" as="geometry" />
        </mxCell>
        <mxCell id="RFqODL0dqzZt3RmBmh70-39" value="" style="endArrow=none;html=1;rounded=0;labelBackgroundColor=none;strokeColor=#788AA3;fontColor=default;" edge="1" parent="1">
          <mxGeometry width="50" height="50" relative="1" as="geometry">
            <mxPoint x="517" y="373" as="sourcePoint" />
            <mxPoint x="545" y="373" as="targetPoint" />
          </mxGeometry>
        </mxCell>
        <mxCell id="RFqODL0dqzZt3RmBmh70-40" value="" style="endArrow=none;html=1;rounded=0;labelBackgroundColor=none;strokeColor=#788AA3;fontColor=default;" edge="1" parent="1">
          <mxGeometry width="50" height="50" relative="1" as="geometry">
            <mxPoint x="546" y="373" as="sourcePoint" />
            <mxPoint x="546" y="243" as="targetPoint" />
          </mxGeometry>
        </mxCell>
        <mxCell id="RFqODL0dqzZt3RmBmh70-41" value="" style="endArrow=classic;html=1;rounded=0;labelBackgroundColor=none;strokeColor=#788AA3;fontColor=default;" edge="1" parent="1">
          <mxGeometry relative="1" as="geometry">
            <mxPoint x="543" y="244" as="sourcePoint" />
            <mxPoint x="567" y="243.5" as="targetPoint" />
          </mxGeometry>
        </mxCell>
        <mxCell id="RFqODL0dqzZt3RmBmh70-43" value="" style="endArrow=classic;html=1;rounded=0;labelBackgroundColor=none;strokeColor=#788AA3;fontColor=default;" edge="1" parent="1">
          <mxGeometry relative="1" as="geometry">
            <mxPoint x="675" y="211.5" as="sourcePoint" />
            <mxPoint x="738" y="211.5" as="targetPoint" />
          </mxGeometry>
        </mxCell>
        <mxCell id="RFqODL0dqzZt3RmBmh70-45" value="" style="endArrow=classic;html=1;rounded=0;labelBackgroundColor=none;strokeColor=#788AA3;fontColor=default;" edge="1" parent="1">
          <mxGeometry width="50" height="50" relative="1" as="geometry">
            <mxPoint x="668" y="280" as="sourcePoint" />
            <mxPoint x="742" y="335" as="targetPoint" />
          </mxGeometry>
        </mxCell>
        <mxCell id="RFqODL0dqzZt3RmBmh70-47" value="" style="endArrow=classic;html=1;rounded=0;labelBackgroundColor=none;strokeColor=#788AA3;fontColor=default;" edge="1" parent="1">
          <mxGeometry width="50" height="50" relative="1" as="geometry">
            <mxPoint x="668" y="251" as="sourcePoint" />
            <mxPoint x="742" y="278" as="targetPoint" />
          </mxGeometry>
        </mxCell>
        <mxCell id="RFqODL0dqzZt3RmBmh70-48" value="VM 1" style="text;html=1;strokeColor=none;fillColor=none;align=center;verticalAlign=middle;whiteSpace=wrap;rounded=0;labelBackgroundColor=none;fontColor=#46495D;" vertex="1" parent="1">
          <mxGeometry x="754" y="197" width="60" height="30" as="geometry" />
        </mxCell>
        <mxCell id="RFqODL0dqzZt3RmBmh70-49" value="VM 2" style="text;html=1;strokeColor=none;fillColor=none;align=center;verticalAlign=middle;whiteSpace=wrap;rounded=0;labelBackgroundColor=none;fontColor=#46495D;" vertex="1" parent="1">
          <mxGeometry x="754" y="260.5" width="60" height="30" as="geometry" />
        </mxCell>
        <mxCell id="RFqODL0dqzZt3RmBmh70-50" value="VM 3" style="text;html=1;strokeColor=none;fillColor=none;align=center;verticalAlign=middle;whiteSpace=wrap;rounded=0;labelBackgroundColor=none;fontColor=#46495D;" vertex="1" parent="1">
          <mxGeometry x="757" y="320.5" width="60" height="30" as="geometry" />
        </mxCell>
      </root>
    </mxGraphModel>
  </diagram>
  <diagram id="RTztzXN_pbEPP6swt1_p" name="Page-2">
    <mxGraphModel dx="880" dy="434" grid="0" gridSize="10" guides="1" tooltips="1" connect="1" arrows="1" fold="1" page="1" pageScale="1" pageWidth="850" pageHeight="1100" backgroundImage="{&quot;src&quot;:&quot;data:image/png;base64,iVBORw0KGgoAAAANSUhEUgAAA0cAAAIqCAYAAADvpzGzAAAAAXNSR0IArs4c6QAAAARnQU1BAACxjwv8YQUAAAAJcEhZcwAADsMAAA7DAcdvqGQAAE8ESURBVHhe7d2NdtvGtTZg5+tR/RdJvf+bOZfUyors2EraL69C9KgqScwAA3AAPs9aXLYcRwRB2ZrXe8+en/71h3cAAABX7v8dfgQAALhqwhEAAMAftNUBAFyxf/7zn+9+//33l8frZeFf/vKXdz/99NO7m5ubw6/A/glHAABXJoHox48f775///7y83OGgJTHX//618Ovwj4JRwAAVyJBKIEojylLwASlDx8+vDxgj4QjAIArkLa5x8fHSaHorbTcffr06d3//M//HH4F9kE4AgDYuVSKvn371iQYvZY2u48fP777f//PjC/2QTgCANixr1+/voSjpaTVLlUk+5HYA+EIAGCnUi369ddfDx8tK/uQUkWCLROOAAB2KNWiVI3WlD1IqSJlTxJskQZRAICdyVS6VI3W9ttvv70MfciPsEXCEQDAjiQYtZpKN0We95dffnk5Rwm2RjgCANiR7DEaO9h1aQlIT09Piw6CgCXYcwQAsBNDW9scb88uStCaE7YypMGhsWyFcAQAsBOp1kxpZ8s47vfv3788jp1ZlANk83lTCZqydDTJjq0QjgAAdiBLuoeHh+rwkkrR58+fiw5yzefOBLwpAUxAYguEIwCAHcheo9oJdTm4NcGo1vPz80tIqm23E5DonYEMAAA7UDv8IC10U4JR3NzcvLu9vf2v/UljpgQ4WJNwBACwcRnEUFPFySGtOax1jrThJSAlZNUQkOiZcAQAsHE1h65m+MLUitExCVm1QUtAolfCEQDAxmWaXKnsM0rlqKVUjxKQErxKCUj0SDgCANi40nCU8LLUQIQEpJ9//llAYtOEIwCADcteo9JwlEEKNeGlVgY0CEhsmXAEALBhNaey1E6Xm0JAYsuEIwCAK5H9RmsQkNgq4QgAYMMyUrtEhjAs2VL3loDEFglHAAAblvBREkDWaKlrQUDikoQjAICNK2mXWzsc5eylX375pWpP1EBA4lKEIwCAjSsJR2u21M0JRgMBiUsQjgAANi5VobHzi0r3Js3VIhgNBCTWJhwBAOzAhw8fzlaQMpBhaS2D0UBAYk3CEQDATnz+/PloBWmNlrolgtFAQGItwhEAwI6kgpTHa0u31P3+++/vnp6eFglGAwGJNQhHAAA7k+rR3d3dv1vplpxU989//vOlYpQfa6SaleusqWoJSCztpz8S/nIRHwCAi0poWbJy9Pj4+NJSVyOBKAfEJrRNacdLZWxsAAVMoXIEALBjSwajVHLmBKPIj/lYBYkeCEcAAFRLKEpIqfE2GA0EJHohHAEAUC3BpKYV7lQwGghI9EA4AgCgyo8fP6ra6caC0UBA4tKEIwAAqtSGkZJgNBCQuCThCACAYqka1YztzsG0pcFoICBxKUZ5AwAsJMus5+fnd9+/fz/ahpZJcjc3Ny9hII+lD2tt4evXry+vp8TckdvGfLM24QgAoLEsrxIiUmWpkXCUhf1f//rXw6/0JRWjL1++FIWVvJb7+/vDR9MJSKxJOAIAaGjKYv6ttJNlgf/+/fuq1rKlpWKU0Fci7XStQp6AxFrsOQIAaCR7Xh4fH2cFo8j/n8/18PDwspemF6WvK1WjltUve5BYi3AEANBAFuOtg8wQktLKlr1Ll1Y6iGGJtsAEpL/85S+Hj8oISNQSjgAAZkpwWXIR/vvvv7+0lT09PVVNimst11EiQyaWUBuOQkCihnAEADBT6T6cuTLgIW17pSGltdJglirPEqaEoxCQKCUcAQDMkEX3mtWcPFcCUu0kvBZK9hwtOUBiTkVKQKKEcAQAMMOlQkpa7NZe7Jecw7RkOMrzz/n8AhJjhCMAgInS3nbJPUBZ7KeKtNY1lLS15VqWvJ65+5kEJM4RjgAAJsr5O5eWa1hrH1JJ5SguGRhLCEicIhwBAEw0JxylCpPBBXnMbUVLGMk0u6XDWul1Ljl2/Nw15L/l8NcSCUg9hFv6IhwBAExUWyHJ4v3jx4/v7u7uXh63t7cvj7/97W8vP75//764OvPWGgGp9PyiJfdhnQtH2YuVcFQakIQj3hKOAABWkArR/f39y8L92N6d/PdPnz69/J4EqCkhKeEgAWmpyk2uqXTf0VIBaax6lfbC3L+SgLTUyHG2SzgCAFhYAkUqQ2ML+0EW9kOQKv1/BsMku6WqIqXVo+zpWWLv0VhoHF73WEDKfxeOeEs4AgBYWEkV45ihBa92ET9UkJYISGn9K5Fg9P3798NH7YwNnshrH5wKSHkNU98T9k04AgBYUEZPl1ZbjkmlJFWnLPRrLBWQUskqHaedoQetA9JYy+Db15v7lnbFXHfu5efPn18+hmOEIwCAE7LQntsaNicYvZZKx88//1zVZrdUQErgKL2OtNe1fP4p70cqRRl6kVbFVu8H+yQcAQC8kQV4zg7K4+Hh4aUCckxJQKgJM2NSsUkVqWQowmCJgJTnL22va/n8GfLwum0OWhOOAABeyZ6WhKLXi/lUP44dGlqyF2jK1LlzEkxSQaqpgCwRkFI9Kn1tLZ4/n8PBrSxNOAIAOBgW8cdat1I9ers4LwkHNVWeUsPemR4CUqnh+afuQcq9L2mpax1GuS6+egAADjIC+9wC/G1AuvRC/NIBKc9dM/Utz//169eX+zw2de61JQY7wDHCEQDAQcnhqa8DUtrqWu4pmuLSASnVo5rnj+wd+vLly2gYzTXm99S00y1RqeN6/PTHHxC72gAA/vB2r9E5qZgkGIz9PzmnaI0Fe0JEQkephLrsXWp1EGrt87+WClyuY6jEZXmaytKUALfW/WafVI4AAA5ShSmtBA0VpFbhYq4eKkhTQ0mqRwlWuadDC92U60q4EoyYQzgCADjI4rrmLKEs5McW8SWteq1cMiDl3uX5h+rPJZQeTgunCEcAAK+kElQTkMaCxdo7GC4ZkFK1qT2HqaXavU/wlnAEAPBGbUA6Z83K0eDSFaTs+1k7qGQPWC8tjmyXcAQAcESrgJTBAiXn87R26T1Itc8/R96rmjOX4BThCADghFYBqVXgqNVDQPr06VOTCtwp+dx5DmhBOAIAOKNFQLpEa93g0gHp/fv37+7v7xepIg0DNEyooxXhCABgxNyAdKnK0eDSASn3bagitZpml/ckwx/yI7TiEFgAgEIJCwkNU5ZPqZ5ccsx1XPqg2EHOMcoj+7Fq5ZpSjbLHiCUIRwAAFaYGpCzmM1Ht0noJSJHrSMth7unY0IoEy1S/EowuHTLZL+EIAKDSlIA0tIH1oKeANEgV6W1IyvNmP1EeAhFrEI4AACaYEpBS+cjemx70GJDg0kRwAIAJEhJqhzQkjCSU9ODSQxqgR8IRAMBEAhLsi3AEADCDgAT7IRwBAMwkIME+CEcAAA0ISLB9ptUBAJuVhXkeGf+cUdAJKK8NZ+PUBJa5cj0JDTVLrFxjwkkPEtYS2krl3iYUvr33sEXCEQCwOb/++uu779+/jx4cOsg5OQkgWcCvsYgXkGCbhCMAYDOyYP/27VtxKDpmqCa9f/9+0YNFBSTYHuEIANiEVIsSjFrJYj4BacmQJCDBtghHAED3ahfpNZYOSQISbIdwBAB0rXXF6JQs6j9+/PgSkloTkGAbhCMAoFsJFY+Pj4eP1pFQ8unTp5cFfksCEvRPOAIAuvXw8DBr+MJUS1WRBCTom0NgAYAuZRF+iWAUCS9fv359CQMt/x05ISFhoaYqlfuQ6+hBQlrCWqncu9b3EJYkHAEAXaqpUCwl15Dq1fPz8+FX5ru2gJSAm4oZbIFwBAB0qZcFdaoeaYVrGdauKSDlNWqrYyuEIwCgOwlGvbViJZi0nJp3LQHpw4cPVa8RLslABgCgO1PGd2cBnsV6HjmvKI+0dP3+++//fqQ9bu7SZ0qoOWfPQxoy0CKT/2ArhCMAoDvnFtzHJLAkLIwd4jrsf0n4SliaKs+T52vVLrbHgJRpf6kawZYIRwBAd2rCURbgWYjXSiDJRLqpISmVo1SQBKQ/JXDmkeCYalGr+wJrEo4AgO6UhqMsxO/v7w8fTTMs6qcsiRKQEgQSUlrYekCCrTOQAQDYrBahIJWnBKwpASchJkHu+/fvh1+ZZ8p+poTIXAMwn3AEAGxSgkSr1q2EkQStVIGmDFpIe16rSXYCElyOcAQAdGdssEIssacl09Xu7u7e/eUvfzn8SrmhPa8FAQkuQzgCAFaTaXFZwP/9739/949//OPkvqKSUDClwlMiwSwBKUGpVqpHrQKKgATrE44AgFVkKtzj4+O/A9G5/TolVaElKkevpcVuyhS8vD4VJNgm4QgAWFwqRpnClh/fyn6dtwGpJAyUtN7NlWENU4Y+pIIkIMH2CEcAwOISFo4Fo8HbgJQ9P2NhYK3TSIZR2TXhJPKaTbGDbRGOAIDF5fyeMW8D0lhl6FzYam1qQMprGtoI5xKQYHnCEQCwuNL9Qa8D0s3NzcuPp9QGlblyPQknte18eU0l4bCEgATLEo4AgMVluEFpqBgC0lgAaBU4agzhpGbUd9r/st9KQIL+CUcAwOKykK+puiQgje0pWmvP0VsJRnktpdWwGAJSJva1ICDBMoQjAGAVQ6goDUhj094uUTka5DXc3t5WB6SW4URAgvaEIwBgNbUB6ZxWVZg5MqShpsUu15yqWCsCErQlHAEAq2oVkFKJuWT1KPIaEpBqXkv2U7U6AykEJGhHOAIAVtcqIF06HEVeS+2Y74Sj5+fnw0fzCUjQhnAEAFxEi4DUQziKhJNM5CuVqlfJ0IkaAhLMJxwBABczNyD1Eo4iB8V+/Pjx8NG4HGKbCXYtTQ1Irw/fhWsmHAEAFzUnIPWw7+i1Dx8+vHv//v3ho3G59pb7j2JKQEpQA4QjAKADcwJSy707LaS97ubm5vDRuG/fvjUPeLUBqeZ6Yc+EIwCgC1MDUtrCeqt85HXk9ZRqOd57UBqQ0gqY3wsIRwBAR6YEpGHvTo8BqbRyk/OPWrfXxVhAShtgHsCfhCMAoCtTAlLCRW8BKddfEzwSjlpOrxucCkipGNUMkIBr8NMffwjb/ykEAJhpSuCZs3dpKY+Pj8V7irL3J9e/hNzHoX0vQyPsM4L/JhwBAN3aQ0DKa0hAKl1y5UDZjAUH1qetDgDo1h5a7PIaasZ7L7H3CCgjHAEAXdtDQMrentLrz7X3Np4croW2OgDgpCzSs1TIgj2yqT9hJQv9/LimKYFnSrBaSipCOdOoxJJ7j4DThCMA4D9kEZ+zg4ZAdEoCRxbx2R+z1jk5Ww9IX758Gb2vg/v7+y6uGa6JcAQAvISNBKLv379PakXLIj6tY2sMEthyQKqpHmWf0qdPnw4fAWsQjgDgyiVs1ExTOycVpCzol26522pAyj1+eHgoutdpYby7u1M9ghX50wYAVyyVolbBKHKeT1rHUh1Z8t9fpwSdKYGqtQSe0hbE3D+DGWBdwhEAXKkcCJrHEiEm7WMJSUsu7rcakGpaD3O9wHqEIwC4QqnspGq0pASQBJElz+3ZYkDKEItS2QcGrEc4AoArk1C0ZGB5K0Hs6elpsTCytYCU1ro8SqSql1ZFYB3CEQBckYSC0mlpLaUCkr1NSy30txaQcr2lLlXhgmskHAHAlcgiO2FgyUEJ5wzPLyDVhaNcI7AO4QgArkSGL1y6CpFgJiD9OdUP6I9wBABXIAFg7uS4BI6MoR4eUw0BaalhA1sISJcOqcBxDoEFgCuQhf+UcJTBARk9/fHjx6NDBBJwUgWZOvkuB8a+f//+8FFbUwLPlGBVK9eTg2BLffjw4eX+A8tTOQKAncu/g05p40p16O7u7iXAnJquluCU/35/fz+pmpRWv6VGivdaQVpzUiBQRzgCgJ1L+KhtFEm14vb2tjhY5Pfl958LUqdcU0BKpW2p1wrMJxwBwM7VLsbntHGlRS4hKaGkRo8BKaPHc12t9kblc04Zo157L4Hp7DkCgB3LPqNUQUqlNS7hpoUpgae3PUivDYMo0kpYE1iy1Eoomhr+0rJYE+yA6YQjANix7G8prVakHS4L8dq2uHPy3LV7bHoOSK8Ne6zyY+7Z68CU58kSK49UnqYutxKK8p4A6xCOAGDHEgRKp9SllS4tda3VBLTBVgLS0kyqg3Wp0QLAjiUIlEiFYolgFPm8CTs1etuDdAmpRi31ngDHCUcAsFMJRqXVkZubm8PPlpEqkIBUJ/esZYsjME44AoCdqmkbG/bPLElAKpf3QzsdrE84AgBWCUchII3LtdTeI6AN4QgAdqp0wZ+AsGY4EJBOSxvd58+fX64JWJ9wBAA7lYV2yZ6VpfcbHZPFf+1+mr0HpFzD3d3dalU84L8JRwCwU1no58DSMWuHo99+++1llPaU00R6DUhzQlVCYvYXJRj1UL2Ca+acIwDYsZxxlCByzu3t7WrVijnB6LW05aU9bwlTzkFKsMp9zOsbxqfn3ud1Hhunnvs9PC5RuQOOE44AYOfGqi1/+9vfqlvcpmgVjAY9BqRep98BZfzpBYANyGL9WAWiRELEufa6LQaj6K3FbkqgAvqicgQAHcuC++np6d/BaMqkt8GxMJHF//39/eGjZeTaHx8fmwaj11SQgFb8qQWATg0L8yEYRcLNr7/+eviozrEK0tIL+KWDUaggAa0IRwDQoSysTy2wE47SpjZFztDJY1jsZ/G/lOE11AajtPl9+PDh8FEZAQloQVsdAHQo1ZZzASgL9ox+niOff8kpdWOv4ZgEowSRXFfCTkJPDS12wBz+pAJAZxIoxkJFFupT2+sGSwajhJo5wSim7K9SQQLmEI4AoDNZUJf49u1b8e9dU0LRjx8/Dh+VeRuMBgISsCbhCAA6k6EJpYvvTLLrTUJbTdf+qWA0EJCAtQhHANCZmoEEWXTPba9rKYGkpp1uLBgNBCRgDcIRAHQoYeDcwa2v9dReVxvUSoLRQEACliYcAUCnEgS21F6XfUY1i/6MFC8NRgMBCViScAQAnUrL2cePHw8fnddDe13NEIa0DZZWxt4SkIClCEcA0LEEiC2012WRX7rXKCGiNPSdIiABSxCOAKBzCRK9t9clGJVOqJsbjAYCEtCacAQAnctiuzQEXKq9rrRilQAxtZ3uGAEJaEk4AoANuLm5KR7vfYn2utKFfctgNEhASiipISABxwhHALARaUcrDQFrt9eVhrGEvCXUhqMQkIC3hCMA2JCMvy6Rhfaa7XWlC/opIabE1NAlIAGvCUcAsCFZcPfYXlcyjKEmJNSa87kFJGAgHAHAxvTYXrdk8CmRw2RzLtRUAhIQwhEAbFAW2yVhYK32upKFf+mo76lKA+MpAhIgHAHABmWR3VN7XUkwSTha8jpaVK8EJLhuwhEAbFTCUdrJSizdXle64H9+fj78rL1zlbQEk9Ix4kuGSQEJ+iYcAcCG5QDUHtrrSipH8ePHj8PP2jt3H/L6M+mvJCClwrVkiBOQoF/CEQDMlAVrKjMPDw8vbVlL7615LQvtDGgosWRFJKO0Sxb7ef6lAtJYSPztt9+KA9ISh9W+JiBBn4QjAJhhWLBmwZ9Fa/arJCQttW/lmPfv3xcv5pdsr8t1lEhIW8JY0BiC4VhAyuuoCS1TTQ1Iax/wC9dEOAKAiYZgNCy6B6kcpYKURexaVaS015VWbpZqryvd/5QQuURAevs+vPX6v58KSAlGuZdrmRKQUgFbsu0PrplwBAATDK1051qcUk368uXLy2J2aWkpu3R7XcJRFvslUllrfV/GAsPboJqAlKEWuXcJJ/l4zWA0mBKQSu8zUEc4AoAJUn0pCRgJT4+Pj6NBqoVUQi7dXlcaLhJUUnVrGZDG3o9j9z+B8m9/+9u7+/v74nu3hJqAtFbbH1wjf7IAYILaRX2qSAlJS1eRstgvWTgnSCzRXpfqUen5SwlICWktqlglQx5KpvpdUklAyn8rvb9APeEIACYo3V/z2lBFWnKkdhbPpdWbpdrrsngvrWwM92ROaEzIKtnD1Hs4inMBKb9W234H1PGnCwAmKK3QHJOFfPYiLRFMImO1S6sLS7TX1ex/iqHFbuqEv9zPpVsW1zQEpNcBPD+/vb211wgW9tMffyGtdxgDAOxIWrnmhouEiKXapDJSvCQ0LHUNuTcl7W6vZd9PTfBMFa6kahR5jTWhrQcZMpGwOaVSCdQTjgBghikB4K0sfDMprXW7VCpTqVCVuLu7W6QqMeX+JAwkyGTwwKlWuGHPVM3nTrth6VlMwHUSjgBgptIKzTlDIGhdwSmtrCQYJSC1lvty7CyoUrmuhMfXISn7k6bsUcpUulNhCyCEIwCYKQv/DBVo8S11iSpS6f6mpQ5AzXMnIF1yX9BS4Q/YFwMZAGCmLLxbtWulIpIwM3U4wTEJPCUVkzzn2EGqU+T+JPBdsmqTIRUAY4QjAGggG/1bbZpPBerr168v+3VaVaNK2/XyvEvINWTa2iXGUCeUCUdACeEIABoprdCUyrCB7GdqUUVKOCoJb2l9K53+VisVpEuMo05Vr1VwBfZNOAKARrLobz0q+nUVae6endLwliEOS7TXRSpH2fuTkd1rSCja2vhu4HKEIwBoKFWKJVq4UkXK0IcpU9oGCW+lAxeWaq8bZA9SQsuS+5DyuZcYMAHsl2l1ANBYKjwJMktNZ6s9KPWt0rOH0oq3dNUl9yjXMyf0HZN7kwCmnQ6ooXIEAI1lYV5asZhSOUmwmXN2UA/tdYPcq+xDallFSiBK655gBNRSOQKAhaQ1bWyYQhbweSSITJFQMeXg2ASsVGzGJLzc398fPlpWqki5rtyzKVW3hKu0NS5d7QL2SzgCYDH5FpPKw9sKR8LAtYxWLjmANeEmrXIJK1OqQcM5QrVT4ErCW6zRXvfWcOZS2u3GlipDKMpjaqshQAhHADSVf/nPgjYL23P/+j9338xW5B4kII19u/35559fAmMqSFNGaScgJMTUVJFybaV7o4bru4R8PR0LSbmefP0IREArwhEATSQUZVFf0w6VRe01bJovCTy5F8MhqakeZU9Rzb0c5F7mnpYGhoSOBKQx+XxrtdcBXIpwBMAsWfhP3SMSqXikKrF0QMr15TpzvXmuDCVY8zDSkjHcqaYl2ESuN4EqobNWbRUpz1Oy5+kS7XUAaxKOAJgki/fsWWkxzWzpgJRKzLH9PFOHGUyRb7cPDw+j7XUJR68PSE2gyrVPCZ/5PKWT6XJtJc9xyfY6gKUJRwBUm7NgP2WpgDTWojZ1mMEUJRPich/SXvf6enLtQ4WuVj5fQmCGFZyT+5S9UWO01wF7ZgcjAFWywJ+6H+ac/Ftd68+bzzUW4oZQUNJWNlcqOa+rQsfkPqQi91oCSSpApVWg14bPl/tw7t9DE8ZKWuZyL6cMjADYAuEIgGJZGGehvVTTwRCQWsm1vm2lOyUL/tLJbXOUDEtIZe5YWEv1J1WbsYB1TEJtQuC5fU9pMSypoOXalj4cFuAShCMAiiQ0JLgsFYwGCTMtqji5ztoFfILDGlWktA+OyTUcC3apHCVgTaki5T1MADxXTSv9vG+rWwB7IBwBUKSmCjNXi+dJOCodZ/1a/r+hirRUEEx1ZmwQRJ773P6kVJHu7u4m7dFKFenU9Lx8vpIhFQlX2uuAvTGQAYBRJYMEpkhIGKoUCTJ55ONMQytp7xqTytHYXptzci0lwwymKhnvXTI+O1WmPKa8zlMT+0quLUyvA/ZEOAJgVFrNWlRzUpXII4vp1lPpTkmFIwGpZKF/Ss1I7Bq5pyUVqrfjvY8Z2h6nvE8Jom8n9pVeWwKt6XXAXghHAJw1t2qUxXMqE0tVX0qlsjKnDSzBKAFpyjCEczKee2z/Tu5hWuhKwtmc1/m2ilT63pdUtwC2QDgC4Kw5VaNTLVuXkteRxf7U1xMJR3ldCSytpOIzNjwiz5vqTok5rzMVvdcT9fJ5EpLGaK8D9kA4AuCktGo9PDwcPiqXCscSB7q2MreKlOCQANHq9eVbcULoqQlyg9qwmYrU1INj8zx55NryNTC2XMg90V4HbJ1pdQCcNGWfTu/BKLLoT5va1KEPCTHZj5OqyligKZF7VlIVSqireb60Ad7e3lZXuRKEXk/sy+cZk+syvQ7YOuEIgJOmLPyzkO45GA0SjBKQ5uyVSbvZ1CEIb+Weje3LSlCpPSQ3nzcBacpeqYTjVLTyvCV7xhLeHA4LbJm2OgBOKh3nPMgCuqTK0JsWe5Fa7a8q2eM19bnyXk49yDdhMmF57P/VXgdsmcoRACfVVI7SGjanCnNJLapIaSlrMfI84TL38pw815QKTapICS5Tqkh5XSWhSnsdsGXCEQBNZME9tqjv3dy9SAkQCUhpL5sqAaakKpRhC1PaHof9TSUhbCrtdcBWCUcAnFSzeN7CPqMSrapIaUmcEl4i4WjsfuZzzwlhaYFMFWmp923s7CaAHglHAJxUE45qJ6L1bm4VaRhmMDXAlFR2MqZ7yqjuQT5/hjUkCLauImmvA7ZIOAKgidaL6x7MrSJlj85QRaodgpDnLhlukc8/d5/TEARbV5G01wFbIxwBcNLUqsnetKgi5SDV2ipP9nGNDU9I6GrRwpbK31BFakn1CNgS4QiAk2oqCVP312xFiypSQkxGhtdUkfJ8Yy2LCV+tQsjcIPjW3KoWwJqEIwBOqlkgX8sieG54yMGxqSLlxxIJRiXtdWlha/UezA2Cr+1tLxqwb/7GAuCkLJJLF7fXtLdkCA8JSlOkcpQKUh4lFbebm5ui58oBry0NQXBOwGndpgewJOEIgLOyMC+RqkXt0IGty8I/+3SmhodUjzKsIW1xY/JcJeO9E7haShDMa5xycGzC1ZT/D+BShCMAzipd3CYYXePm+wSWqeEhEmgSkEqqSDm8dWwqYAJXacteqYS/PHdNEMz9UDUCtkY4AuCsLP5L99dkUX6NG/CnhIe3cu/SFnfu/uVzl+w/yuCHJap4QxDMAbLn5L/nfgBsjXAEwKjSvTVZkLcYK71Vc6tICUZjB8fmc499/rwPrfcfDYaAduqQ2oSikgAH0KOf/vgL9LoaxAGYJBPWSsd1p51q6rCCvcg+otKBC8ekWpegcaxql2/dCVFjn3vp9yHXMRxCm+vMc02tnAH0QDgCoEjavko3+6eikIV96TCHvUp4SXiYswfoVMBJ+MpepXPyPvz888+jgxwA+JN/3gGgSFq5ShfZ+Xe3OVWTvWixFynhKiHo7b3MezFWFcr7cM1tjgC1hCMAip3aZ3JMFubHFvXXaO5epFSJju1FSlVpbFhGWt4EJIAy2uoAqJIFes3Ibi12/2nuXqQErbTKDSE14SchdOzbecKZ9jqA81SOAKiSVq6aRXYW7QkD379/P/zKdWtRRcpwjOF+pnI0Nlo78h7491CA81SOAKiWqkfavGq/hSQQ1LTm7d3cKtLr+5nqUT7fOanepeoEwHHCEQCTPD8/T6pGZCGf6tPYMIG50m6W0JHny7WekspLfs+l2v5yjXMm2uXaE5DyOkra69LiOLVqBbB3whEAk9WM934r09sSSIbHFAkWeST85NtZAlEeU7+1DdeUNrWxQQettagi5ZrH9oMlTN3d3TmPCOAI4QiAWWoHNByThfoQTOJtMHld/RnCz1gL2Vy5ngSOIXSsYW4VaQg8YwFr2PcEwH8SjgCYLQv6t2Om9ySVpISktaa9za0ilTh1uCzANROOAGgii/mpFY+tSDjKnp01WtLmVpFKZDjD1JZGgD0SjgBopkWLXe/S4rfGQInBklWkhLy0160R9gC2QDgCoKk5Qxq2ZC9VpLQL5nUAIBwBsIAs4r9+/Tp5atxWrF1FysGvCUmt76vx3gB/Eo4AWESmyyUgLTlUoBcZ2JCzhtaQb9u5ry2rSJnGl/HeANdOkzEAi8hG/+xnuYaKRCo6a7USplqVSk/CWH7eQsajA6ByBMAK1hhN3YO19++0qiKpHAH8STgCoFpCTqoWNZWL/D+ZZpeF/J6/9SRoZET2mhPg5u5FsucI4E/CEQDFXk9NSzDKXpscJlojnyOL+Tz2+i3oEhPgci+nVJEyTKL2PQTYK+EIgCLZl5LWuLf7U7L3JSFpiizkE5LSdrekVHGGSk72Qp361pfXlv/W4nouEZCipop0qWsE6JVwBMCohIZffvnl6J6hVJCyX2VOG1m+FWW6XcJSgsnUb01pacv15AyiIRAlDNXK68x15DGnDfBSVZlc71gVac0JewBbIRwBMOrx8fFsNSVhJJPpWsm3pjzfUMk5ZghCCUD5+VKGvVKpyEwxp7I216kqUgLbWmczAWyJcATAWak+lIyp3vum/tf7rWokwGVAQwLkJeTbfK47QTMhMqFoTpUPYM+EIwDOSntWSdUkIeD+/v7lxz1LFSlho8a13BuArfNPRwCcVVoNGioUe5fKS+0BrLk3CZkA9E04AuCstIOV7plZY/JcD3I/0ipXE5DSjjd13xIA6xCOABiVDfyl+1RK9iftQUJjAlKNY8MRAOiHcATAqFRISqebDdPdrkECUs05QdrrAPomHAFQJK1kpfuPEo6uob0uck9qzjJKe13txDsA1iEcAVAs1aOSfTbXMpxhkPtSM6r7WiprAFsjHAFQbDgnp0QqR9dUIUl7XemAhpw5lAcAfRGOAKiScJSQVCL7a65lAEEGVpQGx7imyhrAVghHAFQrPefnGtvrSqf6pbJmch1AX4QjAKplf01pleRazj4alJ4JlWDk3COAvghHAExSUyW5lrOPIuGodO+RcATQF+EIgMnSXlfims4+SjAqnVyX+2IwA0A/hCMAJru5uXH20RE1Y72vqeUQoHfCEQCz5ADUkva6axrOUDrNL1SOAPohHAEwS4JRAlKJazn7qHQvVqgcAfRDOAJgtrTWlbbXXcPZR6UDGSKVo+w9AuDyhCMAmnD20f+pqRyF844A+iAcAdBEglHp9Lq9n31kHxHANglHADST1rrSSW17PvvIPiKAbRKOAGgqwxlK2uv2fPaRPUQA2yQcAexEpsBlL8+lW7pSOXr//v3ho/P2evZR2gYB2B7hCGDjUqV4fHx8aVNL2Pjy5cvFJ8KlelRy1s8ehzPkPai596my1ZyLBMByhCOADUuVKMHobfUllYuHh4eLnin0+fPnw8/Oy7Xv5eyjvB+1VaPayXYALMffyAAblYrRL7/8cnJ/S6oXqSYlPF1iD0yqIR8+fDh8dN5ezj7K66i916UDLABYnnAEsFEJPiUL8VRm0mp3ieEH2XtUUhnZQ3tdgtGU/VPCEUA/hCOADUobWs1CfAgfCUlTFvBTJRhl/1GJrZ59lICa6tzUIQz2GwH0QzgC2KCpbXLDHqXSqlMLOfuodHrd1s4+GoLR1FB3c3MjHAF0RDgC2KCEjZKzhE5J5SlVpLVGTu/t7KNU4tJGl3s4J2SW7skCYB0//fEX/PZ3wAJcoefn55dKy9y/xrPnJZPllp6aliCWQDEmIernn3/uci9O7nmCZYvpeqka5XUC0A/hCGDD8ld4AsfcxXoCSapRpfuDpiptQUswur29PXx0OakK5XrTjph73LIVMYE0LYcA9EM4AtiBLOATkrKInyP7X7JoX2ofTMJFWtFKvvWsER4SeHLP8nh7Tcd+rZW00y0dRAGoJxwBu5GAkL/S0q50rbJfJ4+5f7UnlGTxvkSrXa6vZGx3qln39/ez9ladk2u4xP6mXqpiAPw34QjYvFQjUjXJfpBYuvrRu1Q8suif22qXYJQKR+mkuRqpHpVUufLcnz59OnzUVu7P2tPxck8TjJbe3wXANMIRsGkJRr/88st/LbSz+Mxm92sek5zFf6ojc/fJpIqUkNTyXqbKl/1HJfI+LlUNTDiaGyJL9TxoAoA/CUfAZp0KRgMB6c97NISkObKwT0BqOXo61b6SUeJ5/+7u7g4ftZVvgXPHcZfI12KqmYIRQN+EI2CzShbXAtKfUqlJQMqPc+Q+tmxZfHh4KAomSw4wSLhOFWupb4et7xkAyxGOgE3KgjoL6xIC0v9JFSmhcu5f/cNepNzbOUrb61K5SvVo7vOdkutIFbL1t8Tco9yrpa4bgLaEI2CTMnwhi9lSAtL/SbBMFWnuXpvc01Rz5o7bLt33s/SUt5YBSbUIYJuEI2CzSg8UHQhI/yntZAkmJVPjzkk4ykS5qSO3822odN9PnmeJ6XmDfD3NOS8qX1upFC19PhMAyxCOgM3KYvrcQIZjBKT/1uJspLkDG7J3LKFkTN6/tNdNDWIlaitruaaEoTx8XQFsm3AEbNqWA1KqFHnkNeT6cz2vF/35OCOslwwCg3wrSDiZ22qX1rdUd6bc29L2uoSQtKwtLe9JQmN+HL6+8vqG9ynvTb6W8gBgH4QjYPO2FpCGA1pLrzfXmECQxfjS15uwlpCSezrHsBepJjjkfpROjct7t9TZRwBcL+EI2IUtBKQEormHsqZikT03LSbFndOi1S7XV3u2T56z5EymvGdLnX0EwPUSjoDd6DkglS76S60RknI/U0WqGXpxTCpINQMbMpyh5D3M/qalzj4C4DoJR8Cu9BiQSvfSTLFGSMqwhIS7uRWv0oENCWN5D8e+PeVzLnn2EQDXRzgCdqengNS6YnRKrr+2ha1G7ukQkubI9aXaM3adpfdtreEMAFwH4QjYpR4CUq4hLWJr/jWbsJDwsVQ1JfezxdlIucaxKlJpe13CUV43AMwlHAG7demAVLq4b23pKlKkspPHnG8hY9f5/Pz88v6Nyee5vb1dLBACcD2EI2DXLhWQSg81XdLSVaR8+0jrW17rHNkvles8NrChdL+W4QwAtCAcAbt3iYC05BCGGnkdmRS35JlAGaCQIDinSpZglOt82x6X9y5nH+XHMRnO0HrPGADXRQ8CsHtTgs6UQPVaWsJ6MLyOuYMUzklbXIJJqjfHqj8l8u90CZRvg1Deu9KKUP5/AJhDOAKuwpoBKb+/t6J82t+WbvNLiElImjMcIVWo7NV6Heby+UoqX7nvS4ZAAPZPWx1wVaYEntpglQV67fjuVFwSAvLI8+WRa8115pGfz93bE3kNGYKwdPtZWgpzD15XgWrlGtNql8pUvlU9PDyMhs7cxwxnWPr1AbBPwhFwdZYOSAkFNRWMLP4TWPIc5+Sv6wSkPOaEjgSIPN+S+5Ai1ziEpDkSGFOVSlWppHUuvz+vDwBqCUfAVVoyINUMY5i6kM/nTwCruf63UpXJpLilJdQkIOXHqRLoEpDyuks+T+5p7i0A1BCOgKu1VEAqDUf5XHPP50lAymPqX+Vrhojck+x7mvNtJ/eqpGrW4t4CcH181wCuVhbOSwxpKJ3YlkrI3MV7JsTd399PDjgJcnPb3krlGudca5QEo8jva7FHC4DrIhwBV22JgFQSjhIQWlVshj1EeZQGs9eG6tMahmutvedT5DXNaeUD4PoIR8DVax2QSgLKEsEgYSujtDPgoVaqR2ueE5RhELnWVM+mBLpSS48vB2BfhCOAP7QMSCWtcktVTfLc2WszZdBC9gStGZBiblvgmLw3a1XFANg+4QjgoFVAKvn/l6yWRCbRpX2t1iUC0tBqt9QAhTkDKwC4LsIRwCstAlLJAn/pcBSpxkzZh5SAdIlqS9oBU0VKq11LCUZrBz4Atkk4AnhjbkBKGBkLSGtVMqYGpOxBWmuK3VtDq92UvVOnPD8/F41XB+C6CUcAR8wNSGP/35ptXhl+kNdSUtF6LdWjS43DzrWmzS7tgbXXfcqlwh4A2yEcAZwwJyCNVWrW3gOTKkzta4lMe7tkxSWDJRKSUk2aK++N6XUAnCMcAZwxNSCNBYr8nrXlNeS11LarJVBc8rygvAfZh5TR37Xh7q1Uwpx9BMApwhHAiCkBacwlwlHktaQSk1a7UqlyvZ3Idwm5/y3ORlI9AuAU4QigQOuAdOnqRV5LzVlIQ0Baux3wmGFgQ03Aey0hz9lHABwjHAEUahmQskC/VPVokGEHNS12ud4EpB6kcpT3IlWwKe+Hs48AOEY4AqjQMiD1sPclY75rXkuuuaeqS8Ld0GqX96ZUgpHpdQC89dMf3yD80xlApaGKMmcfTtrDWh94OkVeQ15LTSUroSpnKPVmaJkrnbCXylPL85QA2DaVI4AJWlSQepmaltdQe1BshhrMCYZLyWupqSI9PT0dfgYAwhHAZHMDUsLRpfcdDVI9yR6kUmk66DVY5H0pPRcp999wBgAGwhHADHMD0vPz8+Fnl5c2uZo2v1SOeg1ImcRX+p4kHPVSxQPgsoQjgJnmBKTeWtNScakZ8Z29PT0FvNdKK2GGMwAwEI4AGpgakBIuegtICRU1wxZ6DRZpFSxtr0vlqHSIAwD7JRwBNDIlIKVqMXfq3RISkPJ6SuTaew1ICUelryOvwQBXgOsmHAE0NCUgtRgL3lom19XsP/r+/Xs3wyVey+sobRPM9WcKHwDXSzgCaGwvASmtdaXtdT1Pr0v1qPS96HkPFQDLE44AFrCXgJTzj0rb0rJvJxWkHuV1lDKcAeB6CUcAC9lLQKppr+v1zKC8B6VVsJ73UAGwLOEIYEF7CEgJFaXXn2vvdepbhkxkD1KJXvdQAbAs4QhgYXsISKVnBkWvrXUJRqWjvXveQwXAcoQjgBVsPSDlzKCbm5vDR+dl71EePaoZztDzHioAliEcAaxk6wGptOoSve49ito9VNrrAK6HcASwoi0HpFSPcv0lMg671wNVUwErrYLl3qseAVwP4QhgZVsOSKUHqkbPoSKjvUuHM6R61MveLwCWJRwBXMBWA1JpxSV63XcUNcMZwnAGgOsgHAFcyBYDUq61tOLScziKhKPSNsHc715HlAPQjnAEcEFbDEilgSJ7jnoPSDXDGbKPCoB9E44ALmxrASmDGUr1Ho5ywG1NqyAA+yYcAXRgSwGptHIUl6pu1Uj1qKRVUIgC2D/hCKATWwlIvVeDauV+jw1nSLUsVSYA9k04AujIFgJSnm9vzg1nyK9n9DcA+yccAXSm54CU59lCq9wUnz59Ovzs/wzvxangBMC++NseoEO9BqRv374dfrY/2VP0ev9R2uhub2+r3gMAtu2nf2XWKgBdmhJ4pgSrEtlr9Pj4ePioTALGFlvSct9ViwCuj7/5ATo2p4KUKk8OLm3xb2A54+fp6enwUbnSA2N7IxgBXCeVI4ANmNsyl3CViWvDo3Txn28RCVnfv38//EqdVI1MeQNgK4QjgI1ouaco4ejYI98Shs+fH9NKN/XbRKpG9/f3m60eAXB9hCOgO2nhOiaL92vfHN8yIC1tq/uNALhewhFwcVnwZ29MQtHYAaOpQgwtYglL79+/P/yX67GFgJT3KXul8j4BwFYIR8DFZJH/66+/zhoakEV4AlKqFNdUVeo9IGUkdg5WBYAtEY6Ai0iFKNPPsshvJQEpZ9VcywCAXgOSdjoAtko4AlaXatGSh4mmlevTp09XUUnqLSCl1fHu7s4QBgA2STgCVpVqUdro1pB2u7R37X2h3ktAyn1OxSjVOwDYIuEIWE2qRakarSkL9ux92fv+l0sHpFSMEowMYABgy4QjYBWpFqVqdClpscv0tCzi96o2IOVeJMxkSuDUbwVD+Mw+oz3fWwCug3AEncqCNVWWDC7IwjPtYVtdfGax/vj4OHkB3koW8tmLtOeBDbUBKcEmX1v5/cMjn2P4+TEJVMNDCx0AeyIcQYeOVVm2XPlIMBo7v2hN2YuUkLRXUwMSAFw7PRDQmVSLjrWfZaGbBW8WvlsyVL/mGlrAWvj+/XsXlayl5F4lSJdO61t6eiAAbIXKEXQkrXQJQOdsrYL08PAwKdDldab9LVWet9Pm8vkSuHK/5u6Xyb1sFbp6o4IEAHWEI+jIly9fihayWwlICTCp0NSo3Rc0BKVUP0pDwGsC0n8SkAC4ZtrqoBP5d4rSBWx+3xZa7GrPM0rYu729rRqYkP8nvz8Hj2ZR/7bKNCb3PfcyrXZ7pMUOAMoJR9CJLOprqhdbCEg1e42GCk7pIv6YVD3u7+9fWvFqJCB9/fp1tcNp1zYlIO31XgDAOcIRdCTtZDWtcr0HpNJKWOS1zwlGg6EtLweS1laRMghjr1WT2oCkegTANRKOoCNZuGYBu6eAVCKVntZnDw2tdrWBa89tZTUBqeZrEAD2wnc/6MxeAlJN1ah1MBrkHiYg1bbZCUjLvScA0DPhCDp0TRWk2r1WU6TNLvuRaiQg5bFHYwEpYbI2UALAHghH0KlrCUg3NzeHny0rk+xqA1KqRy0OsO3RqYCUe5QwCQDXSDiCjm05IPUY0BKQMqihRoY07FW+roYR6KkU5WvNGUcAXDPhCDq31YBUc71ryl6amv00uYd7PQNpMFSL1qriAUCvhCPYgC0GpLftWr1I0Kk9w2evrXUAwH8SjmAjthiQSq51zWtLMMphr7V6rYIBAG35jg8bsrWAVDKFLte3hqnBKNP0TG4DgOsgHMHGbCkglYSjf/3rX4tf15xgVHuvAYDt8h0fNmgrAal08MGSe3rmBqOlz2ACAPohHMFGbSEgJWCUBKSlDlsVjACAGsIRbNgWAlLJeOhcU+vqkWAEANQSjmDjeg9IqRyVXNvz8/PhZ/MJRgDAFMIR7EDvAamkepRAk2uaSzACAKYSjmAneg5IJfuOMrXu27dvh4+mEYwAgDmEI9iRXgNSQkdJ8Ehr3dT2OsEIAJhLOIKd6TUgffz48fCz86ZUjwQjAKAF4Qh2qMeAlABSOrmuJiAJRgBAK8IR7FSPASnVo4SSMTn3qKS9TjACAFoSjmDHegtIuZ6S4QyR0HPuGgQjAKA14Qh2rreAlOpRybXkuU+11wlGAMAShCO4Aj0FpASU9+/fHz4678ePH++enp4OH/1JMAIAliIcwZXoKSB9+PChOKQkIA0VJMEIAFjST//KyYvA1ZgSeKYEqzG5jsfHx5fDX0tkr1KCUq1LB6PffvvtZbhErj/3EQDol3AEV6iXgHSsba6lHipGDw8PL/c51/Lp06figRQAwPq01cEV6qXFLkGhdP9RrR6CUapGw/3Kv0MlCE455BYAWIdwBFeql4CUakrrANPLHqPcr7dyhpOABAB9Eo7givUUkBJoWuglGEUqR8cISADQJ+EIdiwBJsMA3j5eB5seAlKuIQFprp6CUZwKR5GANGXABACwHAMZYGeyIM8jC+9jbV2vJUQkFA2PVDNq/kqYEqzOyfMnNEzRWzBKcMwwhnNyzXd3d83uHwAwj3AEO5HFeDb8n6tWLKF1QMo5RjnPqEZvwShKg17OfPr48ePhIwDgkvxzJexAFuFfvnxZPRhF6xa7KeOu8288Y1WytaV9scQl3jMA4DjhCDYulZbadrjWWgekz58/Vwek3Ide9vCUtDQOUnkDAPogHMGGpWJU24K2lCUCUm2bXC/nCNW8J2kJBAD6IBzBRiWETB1esJQlAlJtZSX35JIBKe10Na1yPe2TAoBrJxzBRiWE9DhPpWVAypCHBKTaYQ8JSGmzu4SaYJaq0c3NzeEjAODShCPYoCz8S/e0XELLgDRMw6utIKW1LUMq1rxPCUY1zycYAUBfhCPYoC0cHtpDQMo1PD4+rnK/0kpX2+YoHAFAX5xzBBuThX4GD0z1/v37l30uaekafhwkTOSvhGEMdX6cW3kZgk2rc5Dy2qeEnSXPE0owqm1zzP24v78/fAQA9EA4go2ZGg4SUhIOaqsVqfxk8T8MGphSCWodkKYcFBu5jilDHs7JPcl7Untf8l4ksAEA/RCOYGOm7KNpWTUZwlL219QEgl4qSJH7kQra3GvJ8yeo1f41qmoEAH2y5wg2pnYhPlSMWsnCPge01gadlnuQIhWgqZWX7A3KXqQEvKn/PpRQlIA25f9PMAMA+qNyBBvz8PBQFTDu7u6atpG9NiXwtK4gtTjXKGElj7H7lNeb9sK09E0NeapGANAv4Qg2piYcpcKTCsuSeghILatSGVJx7GDWtBLmMVfej7wvAEB/hCPYmJpwlGrIp0+fDh8tp4eAlOdOBWnqPqQ1rBFWAYDp7DmCHTtWAVnClKDTstoTee45+5CWlutbapQ4ANCGcAQb8/pcojGtqjIleghIkQDSsiLVQq6lt2sCAP6b79SwMTXVoBZ7ZGr0EpByllMGUfSwtydhNhWt3BsAoG/CEWxMTThqGThK9RKQhlCSx6UqNrmG3Iu12hsBgHmEI9iYmoX2peat9BKQItWjjM5Ou11NS+Jcee2CEQBsi3AEG5NFd2mLVs7kuZSeAlJkUENC0hoHsCaQpa1PMAKAbRGOYINKF92pHOXA0kvpLSClcpTR5glJCTCtK0n5fKlQpZVvzSoVANCGc45ggzJo4fHx8fDReQlSt7e3h48uY0rgmRKspkh4zP2ccz5SglAqUnksfb0AwHKEI9ioL1++vISOEqmUXHrR3nNAiqHKllbEXOvYX425tgTPPHqYigcAzCccwUal0vH09HT46LxUNNJOdmm9B6TXco253lSFEphyHfl5flQdAoB9Eo5gwx4eHoqDRlrrehgQsKWABABcFysN2LCayWu//vrr4WeXNSXoTAlUAAC1hCPYsIynLg0ZaQ3L4IEeCEgAQI+EI9i4murRt2/fDj+7PAEJAOiNcAQbl+pRgkaJVI4EJACA44Qj2IGaSXTZe5SA0QsBCQDohXAEO5ApdDXtdQkWPRGQAIAeCEewE6kelYaLBIqvX78ePurDEJBqCEgAQEvCEezIx48fDz8b9/37927Gew8SkGrPYhKQAIBWhCPYkb/+9a/vbm5uDh+Ny3CGHz9+HD7qw5SDagUkAKCFn/71h8PPgYmyKM8kuDyyUM8jf7SGhX7a3RJa8nHNvpopci2Pj49VQeH29nZSKFlC7t2XL18OH9WZsncJAGAgHMEMCUNpTcsBq6USkvKoGaBQK8EoAaP0j/dPP/30Eip6CUj/+Mc/iq/9LQEJAJhKOIIJEj4y0KAmFL2VxXv2CKUVbglpl3t6ejp8NC7Xk1CRcHFpaZGbc28FJABgCuEIKqValMV7qz86WcgnJNXsFSqVAJfBC6V6CRWpxs09rFZAAgBqWTVAhSzas5+n5b8pDMMEEmRq9gmVyHjvmla5XEtNtWkpLapXw31tfU8BgP0SjqBQKhlzqxnnpMKT4JVFfUu11ZOhMnZJrapoAhIAUEM4ggKp6qxxJlAW8QlILZ8rwxY+f/788mOp7PepnXjX2lj1qPRMJwEJACglHMGIDDao2bczV1r2UqFq2WaX1rpUkGoC0lBBal3JKjVW7Up16cOHD4ePzhsCEgDAOcIRnJFFdULKJSSQZUHfan/TEJBqXLLqMlY5SnUr1aOagHSp9xIA2AbhCM7IYvqSAx2zoM95RfmxhQSkDGmokWDU8hpKjYWj4XpqAlJN5QwAuD7CEZyQfT9pLbu0hJNUb1pdSw6fLd2vM0hAzB6ktBiuZSyUvg5rpQFpqTOlAIB9EI7ghDn7jLJfJov1PNLKNvy8Zqz2a0NAalW9Ga6nRsJKxnyvuf/qnLf3Yiwg5b+3GBEOAOyXQ2DhiKmHkA6hKNWZUxJ08vlThan945e2sIStqSHrrbzGKZPx8hprq0+1EsLG9gjd3d39V+A59pryftS2EwIA10c4YlVZtOZLLov8LFh73QMyZY9NWrYSGErPFEpIykK+tlWtdUBKNWhKu1ymxSVw1JyhVKMkoOb5jwXRBKv8v0NY1U4HAJQQjlhFgkYW4W8DxxoViFoJCrnWGll85yyhKYaFfM0fxV4qSAkfuY4l2tXSRpiJdOecCkcAAFPYc8TiEohO7ZfJgjxVmp4yem0VZU4wiizuawNG7lfLIQ0JqFNCaqpfrQ+tjXzeHoZhAADXRThiUUMwymL3lPyeBKReFsM115FA06LylQpQAlJN+1frgJQq3pR9ObmOVJ4Sks69zzVqK2kAAC0IRyymJBgN8ntaLvSnynXULMpb7rnJ50kF6pIBKVWs29vbSXvBcg0PDw8vQxTmhKS00pVW71qFMQCAEI5YxLBor1m8tl7oT1Hz3BlI0GrPz2sJSKnilGp934Yq1tRhGdlDlUpgWu1qw0t+f6pGAACXIByxiKnVg0sHpJrnrQkwtdKqd+mAdGxMdqlcT0JOQlJ+LPlaGPafHdubdkqv0w4BgG0yrY7mpkx7e6v1NLZSpWOt0wJ3f39/+Gg5CRY1ww5a37ehklM7pOKYBK08cu+G60sQyl9BaaWrCUWDtACu/TUCAOyXcERzU8/NeesSASlDBUqqL9mbM2V4wRSXDkiRSmDa5XqTgNpqzxcAgFUFzU2pAByT3H7pPUinrBnYLt1iFwmC2QvVUxtbQpFgBAC0ZGVBcy0X0L0GpLVbuRKQLjnFLvL8qUj1Ekgc/goAtCYc0Vzr4LBmQCoZQDDsm1lTXnv25dRY4r7lvU0rW4uzneZIAK8JiwAAJYQjmsuI69bWCkhZ9I9VvqZOcJsqrzmvPfeg1lL3LW1+c6bZzZVgpKUOAGjN6oLmUl0oWTTXtt+tEZByTWPtWmsGgjnBaLDUfct9SEBau4qU511yjDoAcL2EIxZRsnjNor12kbtGQKrd37OUFsFosOR9W7OKlPCawRCqRgDAEqwwWETCRcliOftoakdirxWQTl3/GgvzlsFosOR9G6pICS5LDatIMMpAiDVCGABwnYQjFlNSFcrY7yx6ewtICUCnFuK17YC1lghGg6XvW0JxDmZtfc5S3gcHvgIAS3MILIsqOVQ1QSQL31SRcthojaGasOSiOWHi9aS4JVvI8sfxy5cv7/75z38efmUZa9y3yH3L+59Dgae8plxnQnZt+yUAwBTCEYvKwjgBaUyGIKR69P379y4DUhb3ubYEubSOLSXBqPYQ3eH15/pynaXWCkiDfC0MQWnsNSZ8pgqVr4tcJwDAGoQjFvft27d3v/766+Gj04a2qV4D0tKenp6qwk28fd21n+OS9y0B6Vg1KcHIwAUA4BKEIxaXL7GHh4fRPTRZoCcgxbUFpASaBJsap17vlgISAEBP/PMsi8viu2TPyNByFUObXY2EryWHDSwl1ZNU12qcCzRp+6sZRb7V+wYA0JpwxCoSjkqGGLwOCdcSkFIlqxlWUFLpEZAAAOoJR6ympHqUkPB6f9LeA1L23ZTsxxrUtMAJSAAAdYQjVpOF+s3NzeGj0xIWXk8z23NAqglGUbs3SEACACgnHLGqhJxUP87JAv3tHpw9BqRc3+vzk8Z8/Phx0tAEAQkAoIxwxKoyorlkoZ7Q8Hbi2t4CUvYa5fpKpOI25yBUAQkAYJxwxOoScErOsTnWcrangFQ6bjuVtoSbuQQkAIDzhCMuoqQKcmpYwR4CUq7n9b6qc3KvxloRSwlIAACnCUdcRAJOyWjvhKMs0N/aekAqvYaEorzWlgQkAIDjhCMupiTcZGF+6oDULQek0nONsteoVdXotdrBDgISAHANhCMuJgv0kgpGBhecakHbakDKNZQoGX0+RUnV7i0BCQDYO+GIi0qwKamMPD09HX7237YYkErD0VISTKdUpAQkAGDPhCMuKgv0OcMZBlsLSKXhaEqFp9TUqpSABADslXDExSUclYSAsXOBthSQSkaZR2mImqL0Go4RkACAPRKO6EJJ9ShDDE4NZxhsJSCVBpMlr2nufiYBCQDYG+GILmQwQ8liPdWjscX4FgJSabtc6VlIU4xVpUoC3HDfnp+fD78CALBdwhHdSKApGRIwVj2K3gNS6TCEhI7Ssd+1xgJaabtj7lvJewIA0DvhiG6kUlEy2jvh5cePH4ePTus5IOW1lpw1lOtZ6lryuc/Jf//555+LAtKc/UsAAL2woqErCTMlC+3SSkXPAakkCMZSVZmx0JOKVd6LkoC01HlMAABrEo7ozsePHw8/Oy0L93OjvV/rNSAlUJS019W81hpj7XrDax8LSAl5uccAAFsnHNGdLLZLWrkSGEr34/QYkBI6SqtHea2thzOM3bvX//1UQMq+pM+fPx8+AgDYNuGILpUsuBNevn79evhoXI8BKeGopHo0XEfLgDT2mvKcr58vAenu7u4lEOVxe3tbVOUDANgK4YgupUJR0qqVaW4lwxkGvQWkDGUorR6lkvP09FRcLRsz9fUkEOVRMlACAGBLhKONywI3C/e///3vL48snmvazXqWBXir0d6v9RaQci2pypRIJadFQMrrKHktJe2NAAB7IRxtWBbJj4+P/3EAZ6ooCQsPDw+LtoOtIcEo7VtjEhRqBxb0FpBq2tPy/Hnf57TYpR0xrwcAgP8jHG1QFsVfvnwZbSdLaMoiOgv6rVaSEo5KqioJR7WL/Z4CUlrrasZh5/3Me/v9+/fDr5RLMGq5dwkAYC+Eo43JojaL85rFbUJSKklbbbcrqaoktEw5D6ingJTrqGljy3Uk6KSCWPr1kHtUGqhKWhoBAPbkpz8WWHprNmIIRnMCTqowCRulQwB6kQBQMngh46anHEiawFAz+S4SHvJ8LQcTzHmPh+rTsfc2ry+PmlCdz2NMNwBwTYSjjWgRjF7Lgn5LE8dSpcnrH/tyTeUl46an6CUglb7WcxKC88jnqAlEr6WSlcoaAMC10Fa3ES2DUQyb+hMGttBql/BRUu1KEKgdzjDopcUurzWBa468p7mmqcEoplTgAAC2TDjagCUDTKolUzf2r610OENey9SqS08BKS1tl9r3k+cvudcAAHti9bMBc/71v0SCVwJYQlLLBX5rw36pMXk9U6tH0UtASqXs9vb2IgGpZIQ6AMDeCEcbsNa/4Gdh33urXQJDyUS3hKM5QaWXgJTXmoC05mGsee1a6gCAayQcbcCaC+PovdWudILalNHer/UUkFoPfTglz1X7mgEA9kI42oAs0mtbq/L75yyme261ywK+pLKR654b8HoJSKkepoKUtsKl2uzyeecOggAA2DLhaAOmLFqzQM8jC/s5bXlZ4CcgpQrTU6td6bCCOXuPBr0EpMheoIwqb11FSuDM5zWEAQC4Zs452pAs9GtbxbLoTcUhFZS5bWYJIwkJJSO115DXUxJ+poSbY3IPU02rMQTbJVri8tpzTXNDa64tYVMwAgCunXC0MaWB4LVhz0o8PT3NrmZkMZ2wkc97aQ8PD6PhIAGlVVWkt4AUuaY8aqca5v1LJaqXsAsAcGnC0QbNCUgJCD9+/Hj5HHMrDllYpypzyYpDXksC35gEgNJBDmN6DEiRcPT8/PzvH4/90c7zDw8T6QAA/pNwtFFzA1KC0RCS5uih1a50aETCUavr7DUgvZX3OWEp73kPlT4AgJ4JRxs2NyBFFs9bb7UbhkaMyWu+v78/fDTfVgISAABlhKONaxGQolWrXSozCUkJAWtKSElYGZNWwIzDbkVAAgDYD+FoB1oFpASjfJ6SkHFOFv8JIXmsJV/GX758GQ13ubZUj1qGNwEJAGAfhKOdaBWQIm1q+XxzW+3y+bPPZ61Wu7z+XPeYDCLI625JQAIA2D7haEdaBqTIgj+fb0utdqkelYy0zmtuPa1NQAIA2DbhaGdaB6SttdqVDmfIa87ZR60JSAAA2yUc7VDrgBRbarX75ZdfXs75GZPBDEuENQEJAGCbhKOdWiIgRabaZeE/98smh8cmnCzRape2ulSPxq4xz916OMNAQAIA2B7haMeWCkhptcviv/Zzv5UwsFSrXa4tr39MnrvlaO/XBCQAgG0RjnZuqYAUqdBk8d+i1S4BpfWAhIeHh6JhEre3t4uFEQEJAGA7hKMrsGRAilatdglH2Y/Uqs0t1/X09HT46LS81iWGMwwEJACAbRCOrsTSAanXVrvsPSqpbGXUePZBLUVAAgDon3B0RZYOSJFWu1RrSs4aOifPm8AyNxiUjvbO60t7XenrnEJAAgDom3B0ZdYISJHnyGPul1cOkE0VKdcwVelrTuUogWxJAhIAQL+Eoyu0VkDKl1aCQPb+zJFwMIz+niLXkeEMY1/qa4WQqQEpla05IREAgPOW6yGiW1MOP02bXA5XLZn+NsiCPgMWMuxgzqI+oSZhLgFnStDKdZS83jxPgsvSplSocm1zQyYAAOcJR1dqrYAUCUYJSHnOBJWp8rzZz5RH7TWUtuYlgKwRQqYEpDn3DgCAccLRFVszIEWe6/7+fvZUuISXL1++VLcGlr7WtB2uoTYg2XMEALAse45YbQ/Sa8/Pzy/PO3eqXZ4/IS+DG0ok2OW5xyRI5fOuoWQP0prXAwBwrYQjXlwiIEWeM4+5X4apqmR/09i1pOKVqtPY86WFLVWutVrZzgWkBL+8NgAAliUc8W+XCkj5EsxztxiGMFSRzl1PQkjJc93c3Ly8trUcC0hTWh8BAJhGOOI/XCogRctWuwSKc3ubMvmuZN9Uxmevudcn9yD3P/c0158fAQBYh3DEf7lkQIo8dx5zvzQTalJ5ORZuSvb5RF5XJu0BALB/whFHXTog5csyI7tLhieMSQUmlaS315W9RyVVKq1tAADXQTjipEsHpPjtt99eKjxzW+0yWCFjs19PtcvnTEAas/ZwBgAALkM44qweAlK0bLVLSMo1RulwBhPjAAD2TzhiVC8BKV+qrVrt0iY3tMplOEPJH4O1hzMAALAu4YgivQSkaNlqNwSkvL4xeT2GMwAA7JdwRLGeAlLketISN/dLONdWMtY70lr3et8SAAD7IRxRpbeAlOpRrufHjx+HX1lWXkPa65Z4LQAAXJZwRLXeAlKk1S77kUorQHNkNHiGOgAAsC/CEZP0GJCiVavdGMMZAAD2Rzhisl4D0hqtdglGCUgAAOyHcMQsvQakSDjK9S3Vamc4AwDAvghHzNZzQIpcWx6tv9Rz7ff394ePAADYOuGIJnoPSKke5Rpbt9p9/Pjx32clAQCwbcIRzfQekKJ1q10Oks3eo7wOAAC2TTiiqS0EpGjZandzc/Ny/QAAbNt6q1GuwpQ2s0yX++WXX1Y5o2iQa7y7u2syjvv5+fnlnCUAALZN5YhFbKWCFC1a7Yz2BgDYPpUjFrGVClJkHHeCTa55KpUjAIDtE45YzJYCUqpVudaM5p7SamcgAwDA9mmrY3FbarEb1LbaORAWAGD7hCNWscWAlGCUa/7+/fvhV457//79u0+fPh0+AgBgq3763//9X+EIAAC4cu/e/X+rmtJsVDqVCQAAAABJRU5ErkJggg==&quot;,&quot;width&quot;:&quot;839&quot;,&quot;height&quot;:&quot;554&quot;,&quot;x&quot;:0,&quot;y&quot;:0}" math="0" shadow="1">
      <root>
        <mxCell id="0" />
        <mxCell id="1" parent="0" />
        <mxCell id="rPMaRU_SLeoRCvYnPW2J-2" style="edgeStyle=orthogonalEdgeStyle;rounded=0;sketch=1;hachureGap=4;jiggle=2;curveFitting=1;orthogonalLoop=1;jettySize=auto;html=1;strokeColor=#E07A5F;fontFamily=Architects Daughter;fontSource=https%3A%2F%2Ffonts.googleapis.com%2Fcss%3Ffamily%3DArchitects%2BDaughter;fontSize=16;fontColor=#393C56;fillColor=#F2CC8F;" edge="1" parent="1">
          <mxGeometry relative="1" as="geometry">
            <mxPoint x="482.5" y="219" as="sourcePoint" />
            <mxPoint x="476" y="236" as="targetPoint" />
          </mxGeometry>
        </mxCell>
      </root>
    </mxGraphModel>
  </diagram>
  <diagram id="WVCNBBj62Xqw25n7FlSl" name="Page-3">
    <mxGraphModel dx="880" dy="434" grid="0" gridSize="10" guides="1" tooltips="1" connect="1" arrows="1" fold="1" page="1" pageScale="1" pageWidth="850" pageHeight="1100" math="0" shadow="0">
      <root>
        <mxCell id="0" />
        <mxCell id="1" parent="0" />
      </root>
    </mxGraphModel>
  </diagram>
</mxfile>
